<?xml version="1.0" standalone="no"?>
<!DOCTYPE svg PUBLIC "-//W3C//DTD SVG 20010904//EN"
 "http://www.w3.org/TR/2001/REC-SVG-20010904/DTD/svg10.dtd">
<svg version="1.0" xmlns="http://www.w3.org/2000/svg"
 width="300.000000pt" height="207.000000pt" viewBox="0 0 300.000000 207.000000"
 preserveAspectRatio="xMidYMid meet">
<metadata>
Created by potrace 1.10, written by Peter Selinger 2001-2011
</metadata>
<g transform="translate(0.000000,207.000000) scale(0.100000,-0.100000)"
fill="#000000" stroke="none">
<path d="M711 2044 c33 -35 174 -128 227 -149 23 -10 42 -21 42 -26 0 -14 94
-8 111 8 15 12 25 12 80 -1 35 -8 73 -18 84 -22 16 -6 18 -4 8 6 -7 8 -39 19
-70 26 l-58 12 93 1 c51 1 91 5 88 10 -7 11 28 21 73 21 19 0 32 3 28 6 -3 4
-46 3 -94 -1 -64 -6 -83 -10 -68 -16 14 -7 10 -8 -17 -4 -20 3 -55 1 -79 -4
-24 -6 -45 -8 -47 -6 -10 9 153 75 236 95 51 12 94 26 97 30 5 9 -13 5 -88
-16 -26 -7 -54 -11 -61 -8 -8 3 -43 -10 -77 -28 -83 -43 -83 -43 -74 -28 5 9
4 11 -4 6 -6 -4 -9 -11 -6 -15 7 -12 -42 -32 -60 -25 -18 7 -18 12 -1 92 7 34
9 62 4 62 -4 0 -8 -8 -8 -18 0 -10 -4 -22 -10 -28 -5 -5 -10 -28 -12 -52 -4
-50 -12 -42 -50 43 -12 30 -26 55 -31 55 -4 0 2 -18 14 -41 11 -23 16 -38 10
-34 -6 3 -20 23 -31 43 -10 20 -19 31 -20 23 0 -21 52 -110 63 -108 6 1 11 -7
12 -18 0 -11 4 -27 9 -35 5 -8 -5 -2 -22 14 -17 16 -30 32 -29 35 2 7 -73 121
-80 121 -2 0 1 -9 7 -19 18 -34 11 -37 -16 -6 -14 17 -22 23 -18 15 13 -28 37
-50 47 -43 6 4 7 1 2 -6 -4 -8 4 -24 21 -42 15 -16 25 -31 22 -34 -8 -8 -65
51 -94 97 -31 49 -40 49 -15 0 20 -40 96 -116 109 -109 4 3 18 -7 32 -20 l25
-24 -45 17 c-61 24 -144 77 -164 105 -9 13 -16 18 -16 11 0 -8 -20 3 -44 22
-50 42 -70 47 -35 10z"/>
<path d="M1016 2043 c12 -49 25 -72 19 -34 -3 18 -5 40 -5 47 0 8 -5 14 -10
14 -6 0 -8 -11 -4 -27z"/>
<path d="M1158 2043 c-32 -34 -78 -102 -78 -115 0 -14 25 -4 26 10 1 7 2 16 3
21 0 5 22 32 47 60 47 52 49 73 2 24z"/>
<path d="M1245 2030 c-64 -34 -69 -35 -59 -17 4 6 -2 3 -14 -7 -12 -11 -22
-20 -22 -22 0 -8 42 7 88 30 28 14 60 26 72 26 11 0 20 5 20 10 0 17 -26 11
-85 -20z"/>
<path d="M1256 1954 c-26 -9 -46 -17 -44 -19 5 -5 108 21 116 29 9 10 -20 5
-72 -10z"/>
<path d="M760 1940 c0 -20 92 -63 143 -66 l52 -4 -35 14 c-19 7 -44 17 -54 21
-14 6 -17 5 -12 -3 14 -22 -13 -12 -47 18 -36 32 -47 36 -47 20z"/>
<path d="M535 1883 c-11 -2 -48 -13 -83 -25 -36 -11 -73 -17 -88 -14 -20 5
-34 -3 -79 -45 -38 -36 -55 -60 -55 -77 0 -17 -18 -42 -60 -82 -33 -32 -60
-63 -60 -69 0 -7 -10 -25 -21 -41 -19 -25 -21 -37 -15 -93 4 -38 2 -76 -5 -95
-16 -47 -7 -69 67 -161 103 -128 158 -143 349 -95 l68 17 20 -24 c14 -17 29
-24 56 -24 l36 0 -3 -65 c-3 -63 -1 -67 36 -112 28 -34 42 -63 52 -107 12 -56
11 -63 -10 -103 -16 -32 -21 -53 -17 -83 10 -70 77 -267 107 -317 17 -27 30
-57 30 -68 0 -34 23 -70 48 -77 36 -9 139 13 192 40 53 27 104 91 122 150 7
23 27 56 46 74 28 26 32 36 26 60 -15 56 -11 66 41 100 28 18 56 41 63 50 18
24 15 93 -8 174 -22 80 -19 91 33 147 l31 32 -32 0 c-26 0 -35 -7 -57 -43 -30
-53 -31 -64 -4 -178 25 -103 24 -105 -57 -156 -57 -37 -70 -61 -54 -107 13
-40 8 -53 -24 -65 -14 -6 -25 -24 -34 -55 -30 -112 -113 -178 -230 -180 l-56
-1 -6 35 c-4 19 -21 60 -38 90 -35 62 -102 269 -102 315 1 17 7 39 15 49 17
23 20 104 5 157 -5 19 -28 59 -49 88 -35 46 -38 56 -30 83 9 33 3 74 -14 96
-5 6 -24 12 -43 12 -23 0 -37 6 -44 19 -16 31 -41 33 -134 11 -162 -38 -219
-25 -287 65 -24 32 -53 69 -63 82 -17 22 -18 29 -6 77 10 42 10 61 1 89 -12
34 -10 41 24 102 20 36 40 65 44 65 18 0 81 75 81 96 0 36 76 115 104 109 11
-3 59 6 105 20 82 24 165 32 187 17 7 -4 20 -24 30 -46 16 -33 28 -42 80 -61
34 -12 79 -32 100 -44 42 -25 36 -28 79 33 12 17 17 18 47 6 18 -7 37 -16 41
-20 14 -12 -27 -162 -98 -365 -37 -104 -69 -198 -72 -207 -4 -15 1 -18 31 -18
23 0 39 5 42 15 8 20 80 20 88 0 5 -15 77 -22 75 -7 0 4 -17 54 -37 112 l-38
105 -32 -3 c-18 -2 -32 -1 -32 2 0 3 17 68 39 143 21 76 42 157 46 180 6 38 9
42 29 37 12 -3 53 -6 92 -8 76 -3 93 -19 59 -56 -16 -18 -15 -24 29 -117 29
-62 53 -100 66 -105 29 -11 26 2 -23 106 -41 87 -42 92 -28 118 12 20 13 34 5
55 -9 27 -12 28 -107 35 -63 4 -113 14 -143 27 -61 27 -71 27 -104 -9 l-28
-30 -49 24 c-26 13 -65 29 -85 36 -27 8 -38 17 -38 32 0 11 -13 33 -29 49 -26
25 -36 29 -83 28 -29 -1 -62 -3 -73 -6z m455 -627 c0 -8 3 -21 6 -30 4 -12 0
-16 -16 -16 -16 0 -20 4 -16 16 3 9 6 22 6 30 0 8 5 14 10 14 6 0 10 -6 10
-14z"/>
<path d="M780 1860 c0 -13 29 -20 93 -21 46 -1 56 -3 37 -9 -24 -8 -24 -8 5
-9 17 0 43 5 58 12 26 11 21 12 -50 14 -43 2 -93 7 -110 12 -18 5 -33 6 -33 1z"/>
<path d="M1985 1353 c-29 -8 -45 -23 -45 -44 0 -11 -7 -19 -15 -19 -10 0 -15
-10 -15 -30 0 -19 5 -29 13 -27 8 1 13 -16 15 -54 l3 -57 32 2 c32 2 32 2 35
60 2 44 0 57 -10 54 -7 -3 -14 -14 -16 -26 -5 -35 -19 -25 -26 17 -3 23 -1 51
6 66 11 24 15 25 56 19 42 -6 44 -6 40 17 -3 25 -30 33 -73 22z"/>
<path d="M2250 1335 c0 -22 4 -25 35 -25 31 0 35 3 35 25 0 22 -4 25 -35 25
-31 0 -35 -3 -35 -25z"/>
<path d="M684 1336 c-19 -9 -35 -25 -41 -42 -8 -26 -9 -42 -4 -114 3 -60 142
-79 188 -26 34 40 30 56 -16 56 -22 0 -44 -6 -51 -15 -25 -30 -40 -17 -40 34
0 56 13 71 39 47 20 -18 91 -22 91 -5 0 24 -24 52 -55 65 -42 17 -71 17 -111
0z"/>
<path d="M1123 1334 c-2 -6 -2 -55 0 -110 l3 -99 90 0 89 0 0 30 c0 29 0 29
-52 26 -43 -2 -53 1 -53 13 0 12 11 16 50 16 47 0 50 2 50 25 0 23 -3 25 -50
25 -40 0 -50 3 -50 16 0 14 8 16 50 11 l50 -6 0 32 0 32 -86 0 c-52 0 -88 -4
-91 -11z"/>
<path d="M1345 1338 c-3 -8 -4 -59 -3 -114 l3 -99 47 -3 c65 -4 125 14 144 44
12 18 15 39 12 80 -6 74 -30 93 -110 94 -31 0 -63 3 -72 6 -9 3 -18 0 -21 -8z
m113 -60 c27 -27 9 -98 -25 -98 -9 0 -13 17 -13 55 0 56 12 69 38 43z"/>
<path d="M1769 1342 l-37 -3 -36 -104 c-20 -58 -36 -107 -36 -109 0 -12 72 1
80 14 13 21 68 22 79 1 10 -17 78 -23 74 -6 -10 46 -70 205 -78 207 -5 2 -26
2 -46 0z m41 -58 c13 -32 12 -37 0 -29 -6 3 -10 -4 -10 -18 0 -13 -3 -26 -6
-30 -13 -12 -34 6 -35 32 -2 22 -2 23 -6 4 -2 -12 0 -31 6 -41 8 -16 6 -21
-15 -31 -48 -21 -48 -20 -9 92 14 39 21 47 41 47 17 0 27 -8 34 -26z m35 -91
c4 -18 4 -33 0 -33 -6 0 -46 19 -53 25 -2 2 4 15 14 30 19 30 29 24 39 -22z"/>
<path d="M2080 1207 l0 -83 35 -1 35 -1 0 49 c0 50 3 53 48 49 19 -1 22 3 22
34 0 38 -14 45 -50 26 -13 -7 -21 -7 -25 0 -3 5 -19 10 -36 10 l-29 0 0 -83z
m65 43 c3 -5 -1 -20 -9 -32 -9 -12 -16 -30 -16 -40 0 -10 -3 -18 -8 -18 -6 0
-8 65 -3 93 2 11 29 9 36 -3z"/>
<path d="M2250 1204 l0 -84 33 4 32 3 0 78 0 78 -32 2 -33 3 0 -84z"/>
<path d="M2376 1269 c-20 -16 -26 -29 -26 -59 0 -51 25 -80 76 -87 33 -4 45
-1 72 22 18 15 32 31 32 36 0 16 -77 10 -84 -7 -10 -25 -26 -6 -26 32 0 33 20
48 35 24 6 -9 75 -15 75 -6 0 32 -50 66 -98 66 -16 0 -41 -9 -56 -21z m29 -33
c-12 -18 -13 -29 -5 -51 8 -20 7 -26 -2 -23 -20 7 -21 63 -3 82 24 23 28 20
10 -8z"/>
<path d="M2582 1274 c-12 -8 -22 -19 -22 -25 0 -12 42 -12 74 1 20 7 26 6 26
-4 0 -8 8 -13 18 -12 13 1 18 -8 20 -36 2 -29 0 -38 -12 -38 -9 0 -16 8 -16
18 -1 16 -1 16 -11 0 -11 -20 -53 -25 -47 -5 3 6 14 16 26 22 35 16 26 27 -18
22 -71 -8 -93 -51 -44 -84 20 -13 32 -14 53 -7 15 6 39 7 56 2 16 -4 32 -4 35
0 3 4 4 37 2 73 -3 59 -6 68 -28 78 -35 16 -86 14 -112 -5z"/>
<path d="M2012 1258 c5 -34 38 -37 38 -4 0 20 -5 26 -21 26 -15 0 -20 -5 -17
-22z"/>
<path d="M720 1055 c-6 -8 -9 -18 -6 -23 9 -14 86 -13 86 1 0 7 4 6 10 -3 9
-13 11 -13 20 0 6 10 10 11 10 3 0 -9 15 -13 43 -13 31 0 38 3 27 10 -13 8
-12 10 3 10 9 0 17 -4 17 -10 0 -5 9 -10 20 -10 11 0 20 5 20 12 0 6 9 1 19
-11 22 -25 41 -20 41 10 0 16 -7 19 -47 20 -111 2 -219 -3 -227 -12 -13 -12
-36 -12 -36 0 0 5 8 11 18 13 11 2 13 6 6 11 -7 4 -17 0 -24 -8z"/>
<path d="M1268 1059 c-7 -20 1 -39 17 -39 7 0 16 6 18 13 4 10 6 10 6 0 1 -9
17 -13 46 -13 29 0 45 4 45 13 0 8 4 7 10 -3 8 -13 10 -12 10 3 0 14 -9 17
-49 17 -30 0 -51 5 -54 13 -4 10 -6 10 -6 0 -1 -16 -28 -17 -33 -1 -3 8 -6 7
-10 -3z"/>
<path d="M1660 1048 c0 -24 4 -28 29 -28 16 0 32 6 34 13 4 10 6 10 6 0 1 -7
11 -13 24 -13 18 0 19 2 7 10 -9 6 -10 10 -3 10 6 0 14 -4 17 -8 8 -14 66 -12
66 1 0 7 4 6 10 -3 9 -13 11 -13 20 0 6 10 10 11 10 3 0 -7 5 -13 10 -13 18 0
10 22 -10 27 -11 3 -17 10 -14 15 4 6 -4 5 -16 -2 -30 -16 -171 -14 -182 3 -5
7 -8 1 -8 -15z"/>
<path d="M2041 1063 c-1 -7 -13 -13 -28 -13 -22 0 -25 -2 -13 -10 9 -6 10 -10
3 -10 -6 0 -15 5 -18 10 -10 15 -35 12 -35 -5 0 -8 9 -15 19 -15 11 0 22 -6
25 -12 3 -9 11 -6 25 11 12 13 21 18 21 12 0 -7 28 -11 80 -11 56 0 80 4 80
12 0 9 3 9 12 0 17 -17 38 -15 38 3 0 10 -11 15 -35 15 -19 0 -35 -5 -35 -11
0 -6 -7 -3 -16 5 -20 21 -41 20 -53 -1 -6 -10 -11 -12 -11 -5 0 6 -11 12 -24
12 -13 0 -27 6 -29 13 -4 10 -6 10 -6 0z"/>
<path d="M2348 1058 c-3 -7 -20 -11 -46 -10 -32 2 -42 -1 -42 -13 0 -18 36
-20 43 -2 4 10 6 10 6 0 1 -7 12 -13 26 -13 20 0 25 5 25 25 0 27 -6 33 -12
13z"/>
<path d="M2801 1064 c-1 -6 -22 -12 -48 -13 -26 -1 -51 -7 -55 -14 -5 -8 -8
-9 -8 0 0 7 -34 11 -107 12 -60 1 -115 2 -123 3 -52 4 -90 -3 -90 -17 0 -18
46 -21 53 -2 4 10 6 10 6 0 1 -15 41 -18 41 -3 0 11 40 -8 52 -25 5 -6 8 -5 8
3 0 6 7 12 15 12 8 0 15 5 15 12 0 9 3 9 12 0 16 -16 48 -15 48 1 0 9 2 9 8 0
4 -6 25 -11 47 -11 22 0 44 5 48 11 6 9 10 9 14 0 6 -16 43 -17 43 -1 0 6 8 2
18 -9 15 -18 20 -19 35 -8 23 16 22 35 -2 35 -11 0 -22 6 -24 13 -3 7 -6 7 -6
1z"/>
<path d="M1226 1044 c-9 -22 -8 -23 14 -21 11 1 20 2 20 3 0 11 -14 34 -20 34
-4 0 -11 -7 -14 -16z"/>
<path d="M1430 1038 c0 -20 26 -24 33 -5 4 10 6 10 6 0 1 -7 7 -13 15 -13 8 0
17 6 19 13 4 10 6 10 6 0 1 -8 15 -13 36 -13 19 0 35 -4 35 -10 0 -16 14 -12
37 10 15 14 23 16 26 7 3 -7 6 -4 6 6 1 9 -2 17 -6 17 -5 1 -54 2 -111 3 -91
2 -102 0 -102 -15z"/>
<path d="M1043 1021 c0 -20 2 -22 11 -10 7 9 26 13 54 12 26 -2 42 1 42 9 0 6
9 1 19 -11 22 -25 41 -21 41 8 0 15 -8 19 -40 19 -24 1 -40 -4 -40 -11 0 -8
-3 -8 -9 1 -4 7 -23 12 -43 10 -31 -2 -35 -5 -35 -27z"/>
<path d="M1548 671 c-14 -22 -39 -45 -55 -53 -24 -12 -30 -22 -40 -83 -15 -84
-9 -147 17 -170 39 -35 82 6 125 119 34 92 42 168 21 201 -22 34 -36 31 -68
-14z m27 -129 c-18 -61 -63 -152 -76 -152 -15 0 -21 44 -14 108 7 62 10 69 54
112 l46 45 3 -28 c2 -15 -4 -53 -13 -85z"/>
</g>
</svg>
