<?xml version="1.0" standalone="no"?>
<!DOCTYPE svg PUBLIC "-//W3C//DTD SVG 20010904//EN"
 "http://www.w3.org/TR/2001/REC-SVG-20010904/DTD/svg10.dtd">
<svg version="1.0" xmlns="http://www.w3.org/2000/svg"
 width="300.000000pt" height="100.000000pt" viewBox="0 0 300.000000 100.000000"
 preserveAspectRatio="xMidYMid meet">
<metadata>
Created by potrace 1.10, written by Peter Selinger 2001-2011
</metadata>
<g transform="translate(0.000000,100.000000) scale(0.100000,-0.100000)"
fill="#000000" stroke="none">
<path d="M308 955 c-73 -38 -91 -68 -86 -142 5 -76 -11 -69 -21 8 l-6 54 -24
-63 c-23 -61 -23 -63 -7 -107 10 -25 22 -47 27 -50 5 -4 14 -15 19 -25 21 -39
-19 -9 -46 34 l-26 41 5 -64 c7 -79 27 -109 93 -133 44 -16 45 -18 14 -14 -19
2 -44 8 -55 12 -30 11 51 -73 104 -107 60 -39 72 -36 31 6 -19 19 -29 35 -23
35 8 0 74 -43 102 -66 1 -1 -9 -28 -23 -60 -16 -35 -24 -65 -20 -77 6 -20 7
-19 20 4 18 33 17 18 -2 -31 -14 -34 -14 -43 -3 -57 8 -9 19 -28 26 -42 10
-23 11 -18 12 44 1 49 4 66 11 55 5 -8 10 -54 10 -102 0 -52 4 -88 10 -88 6 0
11 42 11 103 l2 102 11 -70 11 -69 19 43 c19 41 19 45 3 88 -19 51 -15 73 5
27 11 -28 12 -28 16 -6 2 13 -6 43 -17 68 -12 24 -21 50 -21 57 0 16 88 82 97
73 3 -3 -9 -19 -27 -36 -39 -37 -24 -39 31 -5 77 49 153 130 103 111 -48 -19
-62 -13 -18 8 58 27 74 57 74 135 l0 46 -18 -30 c-11 -16 -26 -36 -34 -43 -9
-7 -13 -22 -11 -36 4 -18 -1 -27 -17 -36 -12 -6 -24 -10 -26 -7 -8 7 15 57 37
80 60 64 71 129 34 212 l-18 40 -7 -58 c-10 -83 -20 -82 -20 1 0 83 -8 96 -92
138 l-53 27 42 -41 c48 -47 58 -83 50 -174 -3 -32 -1 -74 4 -91 13 -45 2 -102
-28 -137 -24 -29 -24 -30 -4 -30 12 0 22 -4 23 -10 4 -31 1 -34 -34 -35 -21
-1 -38 1 -38 5 0 3 14 28 31 55 17 28 33 68 36 90 l4 40 -14 -30 c-8 -17 -28
-44 -46 -60 -17 -17 -36 -47 -42 -67 -5 -21 -13 -38 -17 -38 -14 0 -12 91 3
120 8 16 15 37 15 47 0 15 -2 14 -16 -5 -8 -12 -22 -22 -30 -22 -19 0 -64 -48
-64 -68 0 -12 3 -12 20 3 20 18 20 18 5 -31 -8 -27 -15 -51 -15 -54 -1 -11
-29 46 -30 61 0 8 -14 28 -31 45 -17 16 -40 47 -50 69 -14 31 -19 35 -19 17 0
-28 25 -90 48 -116 13 -14 13 -18 3 -14 -8 2 -24 17 -35 32 -20 26 -26 89 -17
161 2 11 0 44 -4 72 -10 69 13 132 63 173 44 36 34 38 -30 5z m-70 -238 c2 -9
-1 -24 -7 -34 -9 -16 -11 -15 -20 10 -6 16 -11 32 -11 37 0 15 35 3 38 -13z
m452 -7 c0 -10 -6 -23 -14 -29 -11 -9 -15 -7 -19 10 -3 11 -3 27 0 34 7 19 33
7 33 -15z m-446 -136 c9 -35 4 -38 -24 -16 -13 11 -20 24 -16 30 12 21 34 13
40 -14z m100 -93 c3 -5 -9 -11 -27 -14 -36 -5 -42 -3 -32 12 8 13 52 15 59 2z
m130 -34 c18 -13 18 -15 1 -40 -19 -30 -26 -32 -43 -15 -20 20 -8 68 18 68 3
0 14 -6 24 -13z m-4 -168 c0 -33 -21 -54 -38 -37 -15 15 -15 40 0 73 11 25 13
26 25 9 7 -10 13 -30 13 -45z"/>
<path d="M390 962 c-19 -10 -34 -23 -33 -29 2 -7 -3 -10 -11 -7 -7 3 -21 -7
-30 -21 -15 -22 -15 -27 -2 -40 18 -19 27 -19 20 -1 -3 7 6 22 19 33 13 10 28
29 32 42 5 17 9 20 15 11 6 -10 14 -8 35 9 23 18 25 21 9 21 -11 0 -35 -8 -54
-18z"/>
<path d="M470 941 c0 -7 -5 -9 -12 -5 -7 5 -9 2 -5 -8 3 -9 -1 -24 -8 -35 -23
-29 -19 -61 7 -65 14 -2 24 -11 26 -23 8 -54 13 -64 27 -59 8 4 15 13 15 21 0
9 6 13 15 9 16 -6 21 9 5 19 -5 3 -3 20 8 41 l16 36 18 -22 18 -22 0 24 c0 37
-49 86 -92 94 -26 4 -38 3 -38 -5z"/>
<path d="M920 783 l0 -153 90 0 90 0 0 28 c0 27 0 27 -60 24 l-60 -4 0 47 0
48 45 -5 c44 -5 45 -5 45 25 0 29 -1 30 -45 25 l-45 -6 0 40 0 40 55 -4 c40
-3 55 -1 55 8 0 7 2 18 5 26 4 10 -14 13 -85 13 l-90 0 0 -152z"/>
<path d="M1205 928 c-18 -48 -95 -284 -95 -291 0 -4 14 -7 32 -5 28 3 34 8 41
38 8 35 9 35 55 35 45 -1 47 -2 55 -38 8 -34 12 -37 44 -37 29 0 34 3 28 18
-4 9 -26 78 -49 152 -42 134 -42 135 -74 138 -20 2 -34 -2 -37 -10z m44 -100
c5 -18 11 -43 15 -55 7 -21 4 -23 -23 -23 -35 0 -35 0 -19 69 13 57 16 58 27
9z"/>
<path d="M1394 928 c-3 -4 -4 -73 -2 -153 l3 -145 31 0 32 0 -6 66 c-6 84 9
83 57 -4 33 -59 36 -62 73 -62 l38 0 -27 43 c-15 23 -36 53 -46 67 -18 24 -18
25 6 33 48 16 60 104 19 140 -18 16 -170 29 -178 15z m117 -48 c21 -12 25 -50
7 -68 -7 -7 -25 -12 -40 -12 -27 0 -28 2 -28 45 0 39 3 45 21 45 11 0 29 -5
40 -10z"/>
<path d="M1622 910 c3 -22 7 -25 41 -22 l37 4 0 -131 0 -131 30 0 30 0 0 131
0 131 35 -4 c23 -3 36 1 40 10 13 34 6 37 -105 37 l-111 0 3 -25z"/>
<path d="M1868 933 c-3 -4 -6 -74 -7 -155 l-3 -148 37 0 38 0 -5 70 -5 70 46
0 46 0 -3 -70 -4 -70 34 0 33 0 -2 152 -2 153 -32 3 -31 3 4 -60 3 -61 -46 0
-46 0 1 58 c1 55 0 57 -26 60 -14 2 -28 0 -30 -5z"/>
<path d="M316 824 c-3 -9 1 -25 9 -37 8 -12 15 -29 15 -38 0 -9 7 -22 15 -29
13 -11 14 -10 9 3 -3 9 2 29 12 46 17 29 17 30 -7 50 -29 25 -45 26 -53 5z"/>
<path d="M545 705 c-16 -7 -51 -20 -77 -28 -40 -12 -50 -12 -75 1 -56 29 -63
32 -63 23 0 -15 83 -51 116 -51 35 0 104 30 123 53 16 20 15 20 -24 2z"/>
<path d="M930 572 c-6 -2 -10 -61 -10 -143 l0 -139 31 0 31 0 -4 60 c-2 36 1
59 7 57 5 -2 25 -29 43 -60 28 -49 37 -57 62 -57 17 0 30 4 30 9 0 5 -16 32
-35 61 -40 59 -40 60 -21 60 21 0 46 39 46 71 0 14 -9 38 -20 52 -17 22 -29
26 -85 29 -36 1 -70 2 -75 0z m114 -64 c15 -25 -3 -52 -38 -56 -24 -3 -26 -1
-26 38 0 39 2 41 26 38 15 -2 32 -11 38 -20z"/>
<path d="M1159 573 c0 -4 0 -69 0 -143 l0 -135 31 -3 31 -3 -3 143 -3 143 -27
3 c-16 2 -28 0 -29 -5z"/>
<path d="M1296 557 c-28 -28 -34 -73 -16 -107 6 -11 29 -25 53 -31 52 -15 67
-26 67 -50 0 -31 -39 -43 -88 -26 -39 14 -42 13 -48 -5 -3 -11 -1 -25 4 -30
17 -17 108 -22 142 -8 39 16 63 61 55 100 -8 36 -26 51 -84 70 -51 17 -64 42
-32 60 15 8 29 7 54 -4 31 -13 35 -12 46 6 18 30 1 41 -68 46 -54 4 -62 2 -85
-21z"/>
<path d="M1510 578 c-1 -2 -2 -67 -3 -146 l-2 -142 33 0 33 0 -3 143 -3 142
-27 3 c-16 2 -28 2 -28 0z"/>
<path d="M1620 435 l0 -145 28 0 28 0 -4 103 -3 102 36 -85 c20 -47 39 -93 42
-102 4 -12 16 -18 37 -18 l31 0 -1 142 -2 143 -27 3 -28 4 6 -103 5 -102 -32
79 c-48 118 -53 124 -86 124 l-30 0 0 -145z"/>
<path d="M1923 560 c-43 -26 -63 -68 -63 -132 0 -111 83 -166 185 -124 35 15
35 15 35 80 l0 66 -55 0 c-53 0 -55 -1 -55 -26 0 -23 3 -26 26 -21 23 4 25 2
22 -32 -3 -31 -7 -36 -29 -39 -56 -7 -91 98 -56 168 14 28 62 38 96 20 16 -8
22 -7 31 10 9 16 6 22 -19 35 -40 20 -79 19 -118 -5z"/>
<path d="M920 160 c0 -56 3 -70 15 -70 10 0 15 10 15 30 0 23 4 30 20 30 12 0
20 7 20 16 0 11 -6 15 -20 11 -15 -4 -20 0 -20 14 0 14 7 19 25 19 14 0 25 5
25 10 0 6 -18 10 -40 10 l-40 0 0 -70z"/>
<path d="M1020 211 c-5 -11 -10 -34 -10 -51 0 -52 16 -70 60 -70 44 0 60 18
60 70 0 52 -16 70 -60 70 -29 0 -42 -5 -50 -19z m76 -26 c10 -42 -3 -77 -29
-73 -17 2 -23 11 -25 36 -4 45 3 62 27 62 14 0 23 -9 27 -25z"/>
<path d="M1150 179 c0 -68 13 -89 53 -89 46 0 57 16 57 82 0 44 -3 58 -15 58
-10 0 -15 -15 -17 -57 -3 -50 -6 -58 -23 -58 -18 0 -20 6 -19 58 1 49 -1 57
-17 57 -16 0 -19 -8 -19 -51z"/>
<path d="M1288 160 c-2 -59 -1 -70 13 -70 14 0 16 8 11 46 -6 56 8 53 28 -5 9
-28 19 -41 32 -41 16 0 18 9 18 70 0 56 -3 70 -15 70 -11 0 -15 -11 -15 -42
l0 -43 -20 43 c-30 65 -48 56 -52 -28z"/>
<path d="M1420 160 l0 -70 40 0 c45 0 62 21 62 76 0 47 -17 64 -63 64 l-39 0
0 -70z m65 0 c0 -35 -4 -45 -17 -48 -15 -3 -18 4 -18 48 0 44 3 51 18 48 13
-3 17 -13 17 -48z"/>
<path d="M1554 160 c-17 -57 -19 -70 -7 -70 7 0 16 7 19 15 4 8 17 15 30 15
15 0 24 -6 24 -15 0 -8 8 -15 18 -15 17 0 17 4 -3 68 -16 48 -27 68 -41 70
-16 2 -23 -11 -40 -68z m45 -14 c-14 -16 -22 1 -14 31 l8 28 7 -25 c4 -14 3
-29 -1 -34z"/>
<path d="M1650 220 c0 -5 9 -10 20 -10 18 0 20 -7 20 -60 0 -47 3 -60 15 -60
12 0 15 13 15 60 0 53 2 60 20 60 11 0 20 5 20 10 0 6 -25 10 -55 10 -30 0
-55 -4 -55 -10z"/>
<path d="M1770 160 c0 -60 3 -70 18 -70 15 0 17 10 17 70 0 60 -2 70 -17 70
-15 0 -18 -10 -18 -70z"/>
<path d="M1840 211 c-5 -11 -10 -34 -10 -51 0 -52 16 -70 60 -70 44 0 60 18
60 70 0 52 -16 70 -60 70 -29 0 -42 -5 -50 -19z m76 -26 c10 -42 -3 -77 -29
-73 -17 2 -23 11 -25 36 -4 45 3 62 27 62 14 0 23 -9 27 -25z"/>
<path d="M1974 160 c0 -51 3 -70 13 -70 9 0 13 16 14 48 l1 47 21 -47 c14 -30
28 -48 40 -48 15 0 17 10 17 70 0 56 -3 70 -15 70 -11 0 -15 -12 -16 -47 l0
-48 -18 45 c-12 28 -26 46 -37 48 -17 2 -19 -5 -20 -68z"/>
</g>
</svg>
