<?xml version="1.0" standalone="no"?>
<!DOCTYPE svg PUBLIC "-//W3C//DTD SVG 20010904//EN"
 "http://www.w3.org/TR/2001/REC-SVG-20010904/DTD/svg10.dtd">
<svg version="1.0" xmlns="http://www.w3.org/2000/svg"
 width="300.000000pt" height="300.000000pt" viewBox="0 0 300.000000 300.000000"
 preserveAspectRatio="xMidYMid meet">
<metadata>
Created by potrace 1.10, written by Peter Selinger 2001-2011
</metadata>
<g transform="translate(0.000000,300.000000) scale(0.100000,-0.100000)"
fill="#000000" stroke="none">
<path d="M1533 2643 c-13 -20 -18 -50 -20 -120 -1 -51 -4 -97 -8 -103 -3 -5
-19 -10 -35 -10 -16 0 -32 -4 -35 -10 -3 -5 -18 -10 -33 -10 -23 0 -128 -53
-184 -92 -15 -11 -27 -3 -91 60 -40 40 -79 77 -86 82 -16 9 -42 2 -53 -14 -21
-30 -5 -59 68 -133 l77 -76 -17 -26 c-32 -50 -85 -166 -90 -196 -2 -16 -8 -44
-11 -62 l-7 -32 -83 6 c-109 8 -153 -1 -167 -33 -10 -21 -8 -28 11 -47 20 -20
32 -22 131 -22 102 0 110 -1 121 -22 6 -12 9 -28 6 -36 -3 -8 1 -24 10 -36 8
-12 12 -28 9 -36 -3 -8 1 -21 9 -29 8 -8 15 -20 15 -26 0 -13 47 -83 81 -121
22 -24 111 -89 122 -89 3 0 -26 30 -65 67 -118 115 -176 263 -165 423 16 228
183 422 408 475 181 42 372 -15 499 -152 199 -212 199 -514 -1 -727 -68 -74
-67 -83 5 -26 65 52 143 184 153 260 3 22 12 45 19 51 9 7 52 11 115 10 93 -2
104 0 125 20 29 27 30 39 4 67 -19 20 -31 22 -130 22 -102 0 -110 1 -110 19 0
11 -4 23 -10 26 -5 3 -10 19 -10 35 0 39 -30 116 -69 180 -17 28 -31 56 -31
63 0 6 16 25 35 40 43 34 115 123 115 142 0 20 -29 45 -51 45 -10 0 -56 -35
-100 -77 l-81 -77 -31 18 c-75 45 -142 76 -163 76 -13 0 -26 5 -29 10 -3 6
-21 10 -39 10 -51 0 -56 13 -56 132 0 96 -2 108 -19 118 -29 15 -39 13 -58
-17z m47 -108 c0 -96 -3 -115 -15 -115 -12 0 -15 19 -15 115 0 96 3 115 15
115 12 0 15 -19 15 -115z m556 -116 c7 -12 -143 -169 -163 -169 -33 0 -18 28
54 100 77 79 96 90 109 69z m-1033 -77 c61 -61 75 -80 65 -90 -10 -10 -29 4
-90 65 -75 74 -93 103 -65 103 7 0 47 -35 90 -78z m-93 -487 c0 -12 -20 -15
-120 -15 -100 0 -120 3 -120 15 0 13 20 15 120 15 100 0 120 -2 120 -15z
m1356 4 c15 -25 -17 -33 -123 -30 -59 1 -111 5 -116 8 -4 3 -3 11 4 19 14 18
224 20 235 3z"/>
<path d="M1480 2349 c-126 -22 -260 -112 -332 -223 -142 -220 -87 -537 117
-678 23 -17 20 -11 -14 24 -24 25 -44 50 -45 54 0 5 -4 8 -8 7 -5 -2 -8 4 -8
12 0 9 -11 32 -24 53 -39 60 -45 107 -9 71 5 -5 32 -13 59 -17 43 -6 49 -10
56 -38 9 -37 71 -96 131 -125 24 -12 50 -34 59 -49 22 -39 72 -63 114 -56 33
7 84 55 84 81 0 18 32 35 66 35 36 0 106 42 141 85 16 19 38 36 48 38 11 2 30
8 42 15 25 14 66 17 45 3 -7 -4 -14 -15 -16 -23 -1 -8 -9 -27 -19 -41 -9 -15
-17 -29 -17 -32 0 -3 -22 -28 -49 -55 -27 -28 -44 -50 -38 -50 19 0 121 113
149 166 85 159 77 370 -20 520 -109 167 -316 257 -512 223z m164 -28 c3 -4 23
-11 43 -15 21 -3 55 -14 77 -24 l38 -17 -42 -28 -43 -27 -34 20 c-45 26 -131
36 -185 21 -36 -10 -49 -10 -80 4 -21 8 -38 19 -38 23 0 28 249 69 264 43z
m-229 -106 c48 -47 19 -115 -48 -115 -41 0 -68 27 -69 68 -1 36 7 51 36 62 36
15 56 11 81 -15z m273 -23 c2 -7 -6 -12 -22 -12 -62 0 -116 -40 -173 -127 -28
-45 -38 -53 -64 -53 -41 0 -86 -25 -103 -57 l-14 -28 -12 44 c-6 24 -9 60 -5
81 l6 38 56 -2 c48 -1 57 2 79 27 16 19 24 40 24 67 0 42 4 44 95 53 43 4 128
-16 133 -31z m167 3 c65 -64 -18 -152 -93 -99 -31 21 -31 87 0 108 32 23 65
20 93 -9z m-591 1 c-3 -8 0 -33 6 -56 11 -41 10 -44 -23 -79 -44 -46 -67 -99
-74 -166 -4 -42 -12 -60 -34 -81 -16 -15 -31 -25 -34 -22 -3 3 -6 40 -7 81 -1
110 49 228 130 304 39 37 44 39 36 19z m446 -51 c0 -62 74 -108 132 -84 27 11
32 10 44 -6 34 -46 68 -176 47 -175 -5 1 -17 15 -28 32 -31 50 -103 89 -174
95 -55 5 -61 8 -70 35 -6 16 -25 43 -42 59 l-31 29 33 15 c46 19 89 19 89 0z
m243 -17 c37 -50 54 -88 76 -169 20 -77 22 -162 4 -193 -9 -16 -11 -15 -27 9
-10 14 -27 36 -38 47 -16 16 -19 27 -12 52 13 54 6 97 -25 161 -23 47 -29 70
-25 94 8 39 17 39 47 -1z m-336 -77 c24 -35 23 -51 -2 -47 -9 1 -38 -1 -65 -4
-28 -4 -50 -5 -50 -3 0 2 8 16 17 31 45 72 64 77 100 23z m-317 -159 c13 -23
40 -55 60 -71 36 -29 37 -31 32 -86 -4 -48 -1 -59 18 -80 13 -14 19 -25 14
-26 -48 -6 -144 24 -144 45 0 6 7 20 15 30 18 23 19 69 4 97 -6 11 -31 29 -56
40 l-45 19 7 43 c4 23 18 67 33 97 l26 55 6 -61 c4 -34 17 -78 30 -102z m270
46 c0 -16 -4 -27 -8 -24 -4 2 -14 1 -22 -5 -12 -7 -10 -9 8 -9 17 0 22 -6 22
-25 0 -33 -28 -44 -47 -19 -14 19 -15 19 -11 -1 2 -13 12 -21 31 -23 30 -4 33
-11 15 -31 -11 -11 -10 -12 0 -6 10 5 13 0 10 -21 -2 -23 -9 -30 -29 -32 -30
-3 -46 22 -29 43 7 9 8 15 1 20 -6 3 -13 -6 -17 -20 -8 -33 -27 -20 -20 14 5
19 4 22 -3 11 -8 -12 -12 -10 -19 10 -8 21 -6 25 12 28 11 2 26 8 31 14 7 7 3
8 -12 4 -28 -9 -36 5 -22 40 8 23 12 25 19 14 8 -12 10 -11 10 6 0 32 12 37
28 12 9 -16 12 -17 8 -4 -4 10 -1 24 5 32 17 20 39 5 39 -28z m-119 4 c-18
-25 -38 -96 -33 -115 5 -17 -38 14 -62 45 -24 31 -24 33 -8 52 20 22 60 41 97
44 l26 2 -20 -28z m218 2 c33 -27 48 -76 37 -120 -10 -39 -62 -84 -97 -84 -28
0 -29 2 -29 44 0 25 5 48 11 51 16 11 20 0 11 -26 -5 -13 -6 -33 -1 -44 6 -16
8 -12 8 17 1 32 4 37 22 35 12 -1 24 4 26 11 3 7 -4 12 -18 12 -18 0 -20 3
-11 12 16 16 15 28 -3 28 -8 0 -15 -7 -15 -15 0 -8 -7 -15 -15 -15 -12 0 -15
13 -15 60 0 60 0 60 29 60 17 0 42 -11 60 -26z m119 -8 c4 -34 -15 -76 -35
-76 -7 0 -13 8 -13 18 0 9 -9 34 -20 55 l-21 38 43 -3 c39 -3 43 -6 46 -32z
m91 -32 c44 -50 53 -84 23 -84 -23 0 -60 -34 -73 -67 -11 -31 -4 -60 23 -90
16 -17 18 -25 9 -42 -18 -33 -135 -111 -147 -98 -3 3 6 21 20 42 33 48 40 90
32 180 -6 66 -5 75 12 84 26 14 55 77 47 101 -11 33 11 23 54 -26z m-618 -102
c48 -39 16 -122 -48 -122 -30 0 -73 42 -73 71 0 32 38 69 71 69 15 0 37 -8 50
-18z m708 -28 c12 -15 21 -37 21 -50 0 -33 -34 -64 -70 -64 -17 0 -39 9 -50
20 -11 11 -20 33 -20 50 0 65 79 94 119 44z m-472 -53 c12 -6 39 -11 59 -11
l38 0 -62 -32 c-49 -26 -66 -30 -80 -22 -22 14 -36 65 -28 100 l7 28 22 -26
c12 -14 32 -31 44 -37z m241 -11 c-5 -40 -47 -54 -97 -34 -42 16 -54 34 -25
34 22 0 94 41 94 54 0 6 7 2 16 -9 8 -11 14 -31 12 -45z m-126 -60 c37 -22 98
-26 116 -8 23 23 24 -1 2 -46 -12 -25 -33 -55 -48 -66 l-25 -21 -28 30 c-15
17 -39 33 -54 37 -34 8 -91 -17 -100 -45 -9 -29 -43 -27 -96 8 -50 32 -99 81
-80 81 7 0 33 -5 57 -11 57 -15 135 1 185 36 19 13 35 24 36 25 2 0 17 -9 35
-20z m-3 -126 c27 -35 26 -59 -4 -89 -63 -63 -160 18 -105 88 29 37 80 37 109
1z"/>
<path d="M747 1345 c-21 -8 -52 -24 -69 -36 l-30 -22 -30 32 c-50 54 -103 38
-162 -48 -16 -23 -31 -41 -35 -41 -3 0 -17 17 -31 37 -57 86 -109 105 -155 58
-40 -39 -31 -80 36 -170 63 -83 69 -102 69 -198 0 -84 1 -90 29 -118 37 -36
70 -37 105 -3 21 22 26 36 27 78 1 113 5 142 29 178 14 21 27 38 30 38 3 0 6
-27 8 -61 8 -152 96 -244 246 -258 l71 -6 -40 -20 c-48 -23 -110 -23 -160 1
-31 14 -40 15 -61 4 -20 -11 -31 -11 -58 -2 -81 30 -126 -1 -126 -87 0 -42 5
-57 26 -78 23 -23 30 -25 82 -18 106 14 178 7 218 -20 45 -30 49 -30 99 -4 57
31 93 34 124 11 15 -10 36 -22 48 -26 31 -10 78 17 93 54 15 35 17 36 39 11
18 -21 14 -20 216 -21 140 -1 206 3 223 14 6 4 22 2 34 -5 15 -8 88 -13 211
-14 185 -2 189 -2 216 21 l28 24 19 -21 c13 -14 26 -19 44 -15 14 2 39 0 57
-6 26 -9 36 -8 57 5 31 21 50 21 66 2 9 -11 35 -13 126 -11 104 3 117 5 139
26 46 43 20 116 -52 146 -48 21 -41 34 20 34 77 0 127 18 168 59 59 59 65 149
13 211 -23 27 -25 34 -15 62 16 44 13 77 -9 126 -28 61 -77 81 -197 82 -83 0
-95 -2 -120 -24 -28 -24 -28 -26 -33 -163 l-5 -138 -42 107 c-24 60 -45 119
-49 133 -9 35 -58 82 -93 90 -30 6 -77 -11 -98 -37 -12 -15 -68 -153 -108
-268 -35 -103 -35 -102 -75 -90 -19 6 -49 10 -66 10 -20 0 -34 6 -38 16 -3 9
-6 79 -6 157 0 122 -3 146 -19 173 -29 47 -95 50 -127 6 -12 -16 -14 -15 -37
6 -31 29 -77 31 -112 4 l-26 -21 -37 22 c-28 17 -52 21 -112 21 -102 0 -157
-27 -215 -105 l-42 -57 -34 51 c-62 92 -196 139 -292 102z m-380 -100 c26 -41
51 -74 54 -74 4 -1 26 29 50 65 23 36 53 73 66 81 21 14 25 14 48 -1 14 -9 25
-25 25 -36 0 -10 -31 -63 -70 -117 l-69 -99 -3 -103 c-3 -117 -13 -134 -65
-115 l-28 9 -3 108 -3 108 -64 89 c-69 95 -79 129 -44 153 33 24 55 9 106 -68z
m561 56 c81 -41 126 -120 126 -221 0 -152 -105 -252 -250 -237 -137 14 -213
114 -201 262 8 107 57 174 149 207 62 22 119 18 176 -11z m503 4 c33 -18 44
-47 29 -76 -11 -19 -17 -20 -53 -14 -85 16 -134 12 -161 -14 -34 -32 -49 -82
-44 -142 9 -92 74 -143 153 -120 79 24 92 24 108 1 22 -32 9 -60 -37 -81 -79
-36 -200 -18 -259 39 -84 79 -97 227 -30 330 27 41 83 79 137 93 40 10 122 2
157 -16z m159 5 c19 -19 20 -33 20 -227 0 -178 -2 -209 -17 -225 -18 -21 -53
-24 -71 -6 -9 9 -12 75 -12 235 0 223 0 224 23 233 32 13 35 12 57 -10z m160
0 c19 -19 20 -33 20 -198 l0 -179 53 5 c73 5 107 -9 107 -47 0 -42 -23 -51
-130 -51 -140 0 -130 -19 -130 246 0 224 0 225 23 234 32 13 35 12 57 -10z
m469 3 c22 -19 161 -388 161 -428 0 -27 -18 -45 -47 -45 -24 0 -48 29 -58 73
l-7 27 -93 0 -92 0 -12 -40 c-6 -22 -21 -45 -32 -51 -27 -14 -66 -4 -74 20 -8
27 139 421 166 444 12 9 31 17 44 17 13 0 32 -8 44 -17z m437 -9 c68 -33 86
-123 35 -175 l-29 -29 23 -6 c65 -16 96 -117 56 -181 -36 -57 -63 -68 -187
-72 -153 -4 -146 -17 -142 254 2 170 6 207 18 215 26 17 188 12 226 -6z
m-1253 -121 l67 -6 0 -92 0 -92 -42 -7 c-24 -3 -60 -9 -80 -12 -54 -9 -94 12
-107 57 -14 47 -14 72 1 106 24 54 38 58 161 46z m-235 -325 c20 -13 52 -30
69 -37 44 -18 168 -11 212 12 30 15 37 15 49 3 16 -16 8 -36 -13 -36 -8 0 -29
-9 -47 -20 -38 -22 -118 -21 -165 3 -35 18 -122 15 -137 -4 -16 -22 -167 -16
-206 8 -36 21 -37 29 -8 39 42 13 93 54 123 98 l30 44 28 -43 c15 -24 45 -54
65 -67z m1082 23 c0 -26 55 -71 86 -71 14 0 35 7 48 15 20 13 25 13 35 2 17
-21 -11 -40 -47 -32 -24 5 -33 1 -49 -19 -19 -24 -22 -24 -59 -11 -21 7 -54
20 -73 28 -35 15 -79 10 -106 -13 -15 -12 -205 -17 -252 -6 -17 4 -34 14 -37
22 -4 11 6 14 52 14 34 0 66 6 77 14 16 12 24 12 51 -2 42 -20 85 -3 115 44
20 33 22 34 90 34 61 0 69 -2 69 -19z m-540 -71 c10 0 21 -4 25 -9 9 -16 -32
-23 -54 -9 -18 11 -24 9 -49 -15 l-28 -27 -34 29 -35 28 32 7 c17 4 39 16 48
26 17 19 18 19 47 -5 16 -14 38 -25 48 -25z m-1046 -48 c-1 -7 -2 -37 -2 -67
-2 -62 -22 -76 -22 -15 0 31 -3 38 -15 34 -9 -4 -15 -19 -15 -40 0 -24 -5 -34
-16 -34 -12 0 -14 10 -12 48 3 46 4 47 36 45 30 -1 32 0 26 24 -5 19 -3 24 7
21 8 -3 14 -10 13 -16z m240 0 c-1 -7 -2 -37 -2 -67 -1 -32 -7 -55 -13 -55 -6
0 -9 19 -8 48 1 26 -1 53 -5 60 -4 7 -4 17 -1 23 9 13 30 6 29 -9z m626 -7 c0
-18 4 -23 15 -19 25 10 45 -16 45 -57 0 -28 -4 -39 -15 -39 -10 0 -15 11 -15
35 0 24 -5 35 -15 35 -11 0 -15 -11 -15 -36 0 -24 -4 -34 -12 -31 -8 2 -12 17
-10 36 1 22 -2 31 -13 31 -13 0 -15 -7 -9 -35 5 -28 3 -35 -10 -35 -12 0 -16
9 -16 34 0 48 -18 55 -22 9 -3 -34 -6 -38 -32 -41 -16 -2 -32 0 -36 5 -14 14
-16 86 -2 90 8 3 12 -8 12 -36 0 -55 27 -58 32 -3 3 32 6 37 26 34 14 -2 22 2
22 12 0 24 21 30 27 7 3 -12 10 -21 15 -21 6 0 7 7 4 16 -7 18 0 34 15 34 5 0
9 -11 9 -25z m250 -45 l0 -70 -33 0 c-18 0 -38 5 -45 12 -30 30 1 95 40 82 14
-4 18 -3 13 5 -8 15 1 41 15 41 6 0 10 -29 10 -70z m665 60 c3 -5 3 -15 -1
-22 -4 -7 -6 -34 -5 -60 1 -27 -2 -48 -7 -48 -10 0 -22 117 -14 133 5 10 20 9
27 -3z m61 -1 c3 -6 0 -15 -7 -20 -12 -8 -12 -10 0 -18 9 -6 10 -11 2 -15 -6
-4 -11 -23 -11 -42 0 -24 -5 -34 -15 -34 -22 0 -25 101 -4 127 14 16 26 17 35
2z m-1957 -8 c9 -6 11 -18 7 -35 -4 -16 -2 -26 4 -26 6 0 10 -12 8 -27 -3 -25
-7 -28 -45 -31 l-43 -3 0 65 c0 65 0 66 28 66 15 0 33 -4 41 -9z m640 -13 l13
-21 18 24 c25 33 39 15 17 -22 -9 -17 -17 -44 -17 -60 0 -19 -5 -29 -15 -29
-10 0 -15 10 -15 29 0 15 -9 40 -20 54 -11 14 -20 30 -20 36 0 19 25 12 39
-11z m491 -43 c0 -51 -3 -65 -15 -65 -12 0 -15 14 -15 65 0 51 3 65 15 65 12
0 15 -14 15 -65z m510 50 c0 -8 -7 -15 -15 -15 -11 0 -15 -12 -15 -50 0 -38
-4 -50 -15 -50 -11 0 -15 12 -15 50 0 38 -4 50 -15 50 -16 0 -20 12 -8 23 3 4
24 7 45 7 27 0 38 -4 38 -15z m180 -40 c0 -48 2 -55 20 -55 11 0 20 -4 20 -10
0 -5 -16 -10 -35 -10 l-35 0 0 65 c0 51 3 65 15 65 12 0 15 -13 15 -55z
m-1617 16 c4 0 7 -22 7 -47 0 -31 -4 -44 -12 -42 -7 3 -12 18 -13 34 0 19 -5
29 -15 29 -10 0 -15 -10 -15 -29 0 -16 -6 -31 -12 -33 -9 -3 -13 10 -13 45 l0
50 33 -2 c17 -2 35 -4 40 -5z m105 -55 c-3 -66 -18 -83 -61 -72 -33 8 -36 28
-4 26 34 -3 47 -1 47 9 0 4 -11 6 -25 4 -19 -4 -27 0 -36 20 -17 38 10 77 51
74 l31 -2 -3 -59z m130 52 c18 -15 16 -88 -3 -88 -10 0 -15 11 -15 35 0 24 -5
35 -15 35 -10 0 -15 -11 -15 -35 0 -19 -4 -35 -10 -35 -5 0 -10 22 -10 49 0
46 1 49 28 49 15 0 33 -5 40 -10z m110 -51 c-3 -67 -18 -84 -61 -73 -34 8 -36
30 -2 24 14 -3 30 1 36 8 8 10 5 11 -10 7 -27 -7 -51 13 -51 43 0 31 22 51 59
51 l32 0 -3 -60z m226 50 c12 -9 17 -23 14 -47 -3 -30 -7 -35 -33 -38 -50 -6
-71 42 -35 78 23 23 30 24 54 7z m538 -4 c27 -25 22 -43 -12 -43 -16 0 -30 -5
-30 -11 0 -7 11 -9 31 -5 22 4 29 2 27 -7 -6 -17 -56 -21 -74 -6 -19 15 -18
48 3 71 20 22 31 23 55 1z m116 -37 l3 -47 -43 3 c-41 3 -43 5 -46 36 -4 44
12 62 52 58 29 -3 31 -6 34 -50z m72 39 c11 -13 8 -15 -16 -15 l-29 -1 28 -15
c38 -20 32 -48 -11 -52 -24 -3 -32 1 -32 13 0 12 6 15 23 10 l22 -6 -22 17
c-25 18 -30 49 -10 57 22 9 34 7 47 -8z m204 9 c26 -10 37 -39 26 -68 -7 -20
-16 -26 -40 -26 -42 0 -60 38 -36 75 17 26 24 29 50 19z m326 -14 c29 -29 25
-40 -16 -40 -23 0 -33 -4 -28 -11 3 -6 17 -8 31 -4 18 4 24 2 21 -7 -3 -7 -19
-14 -36 -16 -26 -3 -34 1 -41 20 -10 27 -4 48 17 66 21 16 29 15 52 -8z"/>
<path d="M751 1205 c-59 -50 -63 -176 -8 -241 29 -33 100 -44 144 -21 83 44
85 230 2 272 -45 24 -103 19 -138 -10z m141 -35 c35 -44 35 -137 -1 -181 -27
-33 -97 -31 -128 5 -42 49 -24 185 26 200 32 9 86 -4 103 -24z"/>
<path d="M2144 1129 l-30 -94 28 -3 c15 -2 42 -2 60 0 l33 3 -31 94 -30 95
-30 -95z"/>
<path d="M2514 1180 l0 -50 36 0 c41 0 70 24 70 58 0 26 -27 42 -72 42 l-34 0
0 -50z"/>
<path d="M2514 985 l0 -55 51 0 c61 0 88 16 88 55 0 38 -27 55 -87 55 l-51 0
-1 -55z m95 12 c14 -18 4 -27 -31 -27 -21 0 -28 5 -28 20 0 24 41 28 59 7z"/>
<path d="M1720 685 c0 -28 24 -34 34 -9 8 20 -1 34 -20 34 -8 0 -14 -10 -14
-25z"/>
<path d="M802 688 c2 -12 10 -23 18 -23 22 0 19 39 -3 43 -15 3 -18 -1 -15
-20z"/>
<path d="M1040 685 c0 -26 24 -35 32 -12 7 18 -2 37 -18 37 -8 0 -14 -10 -14
-25z"/>
<path d="M1283 694 c-8 -21 13 -42 28 -27 13 13 5 43 -11 43 -6 0 -13 -7 -17
-16z"/>
<path d="M1913 694 c-8 -21 13 -42 28 -27 13 13 5 43 -11 43 -6 0 -13 -7 -17
-16z"/>
<path d="M2223 694 c-8 -21 13 -42 28 -27 13 13 5 43 -11 43 -6 0 -13 -7 -17
-16z"/>
</g>
</svg>
