<?xml version="1.0" standalone="no"?>
<!DOCTYPE svg PUBLIC "-//W3C//DTD SVG 20010904//EN"
 "http://www.w3.org/TR/2001/REC-SVG-20010904/DTD/svg10.dtd">
<svg version="1.0" xmlns="http://www.w3.org/2000/svg"
 width="300.000000pt" height="300.000000pt" viewBox="0 0 300.000000 300.000000"
 preserveAspectRatio="xMidYMid meet">
<metadata>
Created by potrace 1.10, written by Peter Selinger 2001-2011
</metadata>
<g transform="translate(0.000000,300.000000) scale(0.100000,-0.100000)"
fill="#000000" stroke="none">
<path d="M1174 2514 c-16 -26 -50 -75 -77 -108 -62 -77 -89 -136 -90 -198 0
-26 -3 -48 -6 -48 -3 0 -24 9 -46 20 -22 11 -80 34 -130 51 -49 17 -122 48
-161 69 l-72 38 -6 -45 c-11 -81 -6 -250 9 -322 32 -154 119 -262 240 -301 22
-7 44 -16 48 -20 4 -4 31 -1 60 7 28 7 69 13 90 13 40 0 43 14 5 23 -13 2 -32
8 -43 13 -18 7 -18 6 -6 -9 12 -15 10 -17 -18 -17 -18 0 -41 5 -52 10 -11 7
-19 7 -19 1 0 -5 6 -11 13 -14 6 -2 9 -7 5 -11 -6 -7 -46 13 -156 78 -47 27
-58 40 -90 106 -35 73 -42 101 -61 245 -11 79 -4 153 16 173 11 11 15 9 24
-12 11 -23 13 -24 24 -9 11 15 14 15 39 -5 15 -11 33 -19 39 -16 7 2 23 -5 35
-16 12 -12 27 -18 33 -15 5 4 16 1 24 -5 8 -7 15 -9 15 -5 0 4 10 1 23 -7 12
-8 42 -20 66 -27 55 -16 66 -7 87 75 16 60 66 153 90 167 8 4 14 15 14 22 0 8
4 15 8 15 5 0 14 11 20 24 10 22 14 23 35 13 31 -14 40 -69 27 -153 -6 -33
-10 -60 -10 -62 0 -2 -4 -1 -9 2 -5 3 -8 -5 -7 -19 1 -23 2 -24 14 -8 6 9 12
20 12 24 0 4 5 20 11 36 6 15 11 62 11 103 -1 41 1 68 5 60 3 -8 13 -33 23
-55 9 -22 23 -55 30 -73 21 -54 35 -23 16 36 -14 41 -87 164 -116 195 -4 5
-21 -13 -36 -39z"/>
<path d="M1615 2394 c-157 -33 -265 -92 -360 -196 -31 -35 -66 -80 -76 -100
-21 -40 -34 -51 -24 -19 5 16 2 18 -15 14 -12 -3 -20 0 -20 6 0 7 -4 9 -10 6
-5 -3 -10 1 -10 9 0 9 -4 16 -10 16 -5 0 -10 -7 -10 -15 0 -8 3 -15 8 -15 4 0
20 -16 36 -36 23 -30 27 -40 18 -57 -26 -54 -36 -109 -36 -202 0 -125 24 -219
73 -293 20 -30 40 -63 46 -73 5 -11 17 -19 25 -19 12 0 13 -2 1 -9 -7 -5 -11
-13 -7 -19 3 -5 -5 -13 -18 -16 -19 -5 -24 -12 -21 -31 1 -16 -3 -25 -12 -25
-28 0 -92 40 -115 72 -28 40 -28 96 1 208 18 72 18 73 0 51 -23 -28 -39 -83
-39 -134 0 -35 -2 -38 -22 -32 -23 7 -23 7 -3 -10 19 -16 18 -16 -26 -11 -87
10 -199 59 -199 88 0 6 6 6 15 -2 9 -8 15 -9 15 -2 0 6 -4 13 -9 16 -18 12 1
46 25 46 13 0 24 5 24 10 0 6 -30 10 -70 10 -38 0 -70 -4 -70 -9 0 -5 18 -46
41 -91 74 -147 186 -240 288 -240 42 -1 48 -4 70 -39 62 -100 247 -131 463
-76 24 6 29 3 42 -30 17 -40 14 -41 93 17 29 21 55 38 58 38 10 0 46 30 141
116 98 90 112 99 90 55 -19 -36 -8 -41 21 -8 27 29 32 48 20 71 -7 15 -5 22 8
32 20 15 12 36 -10 27 -9 -3 -22 0 -29 7 -10 7 -21 8 -33 2 -10 -5 -36 -12
-58 -14 -45 -6 -77 12 -89 50 -4 12 -12 22 -17 22 -12 0 -12 37 1 45 6 3 10
19 10 35 0 20 10 36 33 54 33 27 37 31 68 65 21 23 25 41 9 41 -5 0 -10 16
-10 35 0 32 2 35 30 35 27 0 30 2 24 25 -4 17 -2 25 7 26 8 0 -1 5 -19 10 -18
5 -30 14 -27 19 4 6 1 10 -5 10 -5 0 -9 -13 -8 -29 1 -18 -5 -38 -16 -50 -11
-12 -19 -37 -20 -65 -1 -39 -7 -51 -44 -87 -30 -31 -47 -59 -59 -98 -16 -56
-16 -56 11 -105 15 -26 25 -50 22 -53 -10 -10 -91 -22 -152 -23 -53 0 -64 3
-85 26 -13 14 -41 35 -61 45 -21 11 -45 34 -54 52 -10 17 -43 62 -76 98 -32
36 -58 70 -58 75 -1 14 -70 89 -70 75 0 -7 -5 -9 -10 -6 -8 5 -8 11 0 20 9 10
7 20 -5 39 -15 22 -15 26 -2 26 8 0 20 -13 27 -30 13 -32 69 -95 77 -87 2 3
-8 24 -23 46 -26 40 -26 42 -9 61 10 11 26 20 35 20 10 0 34 7 54 15 28 12 58
14 121 10 46 -3 91 -2 99 1 9 3 23 30 33 60 9 30 20 54 23 54 4 0 15 -9 25
-20 19 -21 59 -27 70 -11 3 5 19 12 36 16 17 4 33 13 36 21 3 8 14 14 24 14
21 0 39 35 39 74 0 47 -38 63 -200 81 -71 9 -149 37 -156 57 -3 10 -11 18 -17
18 -15 0 -21 -48 -8 -64 5 -6 11 -20 14 -31 5 -19 5 -19 12 2 8 25 57 29 76 6
7 -7 20 -11 30 -8 11 4 19 2 19 -5 0 -6 4 -9 9 -6 5 4 50 -2 100 -11 95 -18
98 -20 85 -70 -4 -16 -19 -26 -48 -35 -22 -6 -51 -20 -63 -31 -41 -37 -60 13
-23 60 24 31 25 43 5 43 -8 0 -15 5 -15 10 0 6 -9 10 -20 10 -16 0 -19 -6 -17
-35 1 -18 -1 -33 -4 -32 -3 1 -14 -5 -24 -13 -15 -13 -19 -12 -32 5 -13 18
-12 20 6 23 12 2 21 8 21 13 0 12 -12 11 -44 0 -15 -6 -37 -6 -56 -1 -40 12
-62 3 -58 -24 1 -11 -1 -27 -6 -34 -15 -24 1 -23 47 3 52 29 82 33 73 10 -3
-9 0 -15 9 -15 17 0 14 -72 -3 -78 -5 -1 -8 -12 -5 -22 6 -24 -19 -27 -37 -5
-10 12 -10 15 1 15 9 1 8 5 -5 15 -11 8 -27 15 -35 15 -14 0 -14 -1 -1 -10 8
-5 11 -10 6 -10 -5 0 -3 -7 4 -15 11 -13 8 -15 -18 -15 -17 0 -32 5 -34 12 -3
7 -11 9 -24 3 -10 -4 -27 -7 -37 -6 -10 1 -30 -5 -44 -14 -14 -10 -34 -14 -47
-11 -15 4 -28 -3 -49 -27 l-28 -32 5 35 c5 28 1 39 -19 59 -30 28 -48 23 -70
-19 -17 -33 -12 -55 11 -46 21 8 28 -14 8 -29 -16 -11 -16 -15 -5 -29 12 -14
12 -21 1 -41 -11 -20 -10 -27 6 -47 12 -14 27 -22 41 -20 14 2 27 -5 38 -22 9
-14 25 -28 35 -31 10 -3 23 -19 30 -35 7 -16 28 -41 47 -56 24 -18 33 -32 30
-45 -5 -18 -1 -21 105 -90 49 -31 51 -52 3 -43 -38 7 -41 3 -25 -27 18 -32 -4
-60 -40 -52 -23 4 -30 2 -30 -9 0 -12 -21 -17 -98 -22 -53 -4 -105 -4 -115 0
-17 6 -17 9 7 30 25 24 46 31 46 17 0 -5 12 -16 26 -27 26 -18 26 -18 16 1 -6
11 -18 25 -26 33 -9 7 -22 34 -30 61 -8 27 -26 64 -39 81 -53 72 -73 172 -37
183 26 8 26 39 0 65 -11 11 -20 32 -20 46 0 15 -5 55 -12 90 -14 79 0 132 57
219 23 35 66 74 80 74 6 0 38 15 72 33 48 25 63 39 65 58 3 22 8 25 43 26 60
1 65 3 65 18 0 17 90 42 140 38 82 -6 251 -52 285 -77 17 -13 39 -25 50 -28
18 -4 18 -5 2 -6 -17 -1 -17 -3 -3 -23 9 -12 16 -30 16 -39 0 -9 9 -19 20 -22
11 -3 20 -11 20 -17 0 -9 -8 -7 -25 4 -23 15 -25 15 -48 -17 -43 -57 -55 -152
-23 -178 18 -15 23 -15 37 -3 8 7 29 19 46 25 26 8 31 16 31 39 -1 19 -5 27
-14 23 -8 -3 -14 1 -14 10 0 9 -5 19 -11 23 -9 5 -10 -6 -5 -38 6 -37 4 -47
-10 -52 -12 -5 -15 -2 -10 10 4 12 2 15 -9 10 -9 -3 -19 3 -25 14 -7 14 -7 20
0 20 5 0 10 15 10 34 0 41 10 50 50 41 20 -4 27 -11 23 -21 -3 -8 -1 -14 4
-14 18 0 13 102 -6 129 -10 14 -20 35 -22 46 -9 44 -138 114 -253 136 -48 9
-153 10 -191 3z m-456 -608 c10 -50 10 -69 1 -86 -19 -35 -32 -9 -31 59 2 81
3 91 11 91 3 0 12 -29 19 -64z m-305 -296 c32 -17 67 -30 77 -30 11 0 19 -3
19 -8 0 -4 17 -6 39 -4 25 3 42 -1 47 -10 11 -17 44 -121 40 -125 -2 -2 -25 1
-52 7 -62 14 -121 52 -159 102 -16 21 -41 52 -53 68 -13 17 -22 30 -20 30 1 0
30 -14 62 -30z m1160 -42 c-4 -12 -18 -31 -32 -42 -14 -11 -48 -41 -76 -67
-74 -68 -103 -90 -181 -143 -63 -42 -71 -45 -82 -30 -7 9 -14 21 -16 27 -2 7
-44 5 -123 -6 -65 -10 -133 -17 -149 -17 -47 0 -144 28 -175 50 -27 19 -90
104 -90 121 0 5 20 -2 45 -16 75 -39 146 -50 253 -36 138 17 185 30 176 50
-18 43 -17 61 5 61 11 0 20 6 18 13 -1 8 13 13 43 15 77 4 345 33 349 38 2 2
13 4 23 4 15 0 18 -5 12 -22z"/>
<path d="M2107 2235 c33 -18 84 -80 90 -107 5 -26 23 -40 23 -18 0 17 93 10
139 -10 42 -20 43 -21 37 -58 -9 -50 -82 -202 -97 -202 -7 0 -9 -3 -6 -6 8 -8
-24 -64 -35 -64 -4 0 -8 -6 -8 -12 0 -7 -32 -51 -70 -98 -38 -47 -69 -88 -70
-92 -2 -36 144 74 234 177 143 164 159 231 87 358 -47 81 -74 106 -136 127
-48 17 -217 21 -188 5z m184 -30 c51 -18 99 -61 99 -88 0 -17 -2 -17 -15 -3
-20 20 -91 39 -122 33 -17 -3 -29 4 -48 29 -14 18 -25 35 -25 38 0 12 69 6
111 -9z m153 -222 c-1 -47 -25 -110 -62 -155 -55 -68 -165 -188 -169 -184 -2
2 26 48 63 103 73 106 130 217 140 271 9 48 28 24 28 -35z"/>
<path d="M1121 2204 c-1 -18 9 -44 24 -64 28 -38 34 -33 9 6 -9 13 -20 39 -24
57 l-8 32 -1 -31z"/>
<path d="M630 2186 c0 -26 56 -127 96 -174 18 -22 30 -42 27 -46 -3 -3 -1 -6
6 -6 6 0 35 -18 63 -40 28 -23 53 -38 56 -35 3 3 0 11 -6 17 -7 7 -12 19 -12
28 0 9 -7 25 -16 36 -14 18 -15 18 -4 -4 25 -51 1 -42 -67 25 -51 50 -80 90
-107 144 -19 41 -36 66 -36 55z"/>
<path d="M2220 2076 c0 -2 13 -35 30 -73 16 -37 29 -59 30 -48 0 21 -45 125
-55 125 -3 0 -5 -2 -5 -4z"/>
<path d="M956 1970 c30 -35 45 -86 34 -114 -7 -20 -2 -27 43 -60 l52 -37 -39
35 c-34 31 -38 40 -40 85 -1 44 -6 55 -36 83 -20 19 -26 22 -14 8z"/>
<path d="M2171 1936 c-14 -16 -3 -49 13 -41 6 3 19 8 29 11 22 8 22 21 -2 34
-25 13 -26 13 -40 -4z"/>
<path d="M2080 1890 c0 -5 9 -14 20 -20 11 -6 20 -15 20 -21 0 -11 -41 8 -52
24 -7 12 -58 -17 -58 -34 0 -5 -12 -21 -26 -34 -33 -30 -25 -31 44 -5 52 20
54 20 59 2 6 -23 62 -46 78 -32 7 5 15 7 18 4 10 -10 58 49 52 64 -3 7 -5 16
-5 19 0 3 -7 -1 -16 -8 -14 -11 -19 -9 -35 11 -20 27 -25 16 -10 -23 8 -21 6
-26 -12 -31 -33 -9 -45 -6 -20 4 22 9 22 10 5 39 -17 30 -62 60 -62 41z"/>
<path d="M995 1796 c23 -20 27 -28 17 -38 -9 -9 -24 -10 -69 0 -65 13 -84 9
-26 -7 43 -12 77 -14 111 -5 31 9 28 15 -21 47 -38 26 -39 26 -12 3z"/>
<path d="M1122 1523 c-14 -26 -17 -56 -3 -34 10 16 31 6 31 -15 0 -8 5 -14 11
-14 7 0 6 8 -4 23 -8 13 -17 32 -19 42 -4 19 -4 19 -16 -2z"/>
<path d="M695 967 l0 -94 27 0 c24 0 25 3 17 25 -6 14 -7 56 -3 94 6 67 6 68
-17 68 -24 0 -24 -2 -24 -93z"/>
<path d="M828 1048 c7 -7 12 -43 12 -94 0 -80 0 -81 25 -81 21 0 23 2 13 20
-6 12 -8 50 -6 94 l5 73 -31 0 c-23 0 -27 -3 -18 -12z"/>
<path d="M2178 984 c4 -90 -1 -112 -23 -94 -20 16 -19 74 1 94 14 15 14 16 -4
16 -28 0 -46 -26 -45 -66 1 -50 16 -63 73 -61 41 1 47 3 40 16 -4 9 -6 51 -4
94 5 75 4 77 -18 77 -22 0 -23 -2 -20 -76z"/>
<path d="M2457 1054 c-14 -15 -6 -34 14 -34 14 0 19 5 17 17 -3 18 -20 27 -31
17z"/>
<path d="M216 1032 c7 -4 24 -42 39 -84 15 -43 31 -78 35 -78 4 0 11 11 14 24
3 13 9 32 12 43 4 13 3 15 -4 4 -7 -10 -14 -1 -26 34 -8 26 -13 51 -10 56 3 5
-12 9 -33 9 -21 0 -33 -4 -27 -8z"/>
<path d="M316 1023 c4 -10 8 -28 8 -40 1 -12 3 -19 6 -17 2 3 12 -16 21 -43 8
-26 20 -47 25 -46 5 1 18 30 29 66 11 36 27 72 34 81 12 14 10 16 -10 16 -22
0 -24 -5 -25 -46 -2 -65 -18 -75 -34 -20 -7 24 -9 49 -5 55 4 7 -5 11 -25 11
-27 0 -31 -3 -24 -17z"/>
<path d="M1558 1033 c15 -6 17 -134 1 -150 -7 -7 2 -10 30 -10 32 0 39 3 31
12 -11 13 -15 62 -12 118 2 20 7 27 23 27 12 0 23 -8 26 -20 7 -28 23 -25 23
5 0 24 -2 25 -67 24 -38 0 -62 -3 -55 -6z"/>
<path d="M2370 1015 c0 -8 -6 -15 -12 -15 -10 0 -10 -2 -1 -8 6 -4 13 -29 15
-56 4 -59 27 -81 55 -53 17 17 17 18 1 11 -16 -5 -18 0 -18 44 0 31 5 52 13
55 10 4 10 6 0 6 -7 1 -13 8 -13 16 0 8 -9 15 -20 15 -11 0 -20 -7 -20 -15z"/>
<path d="M467 982 c-35 -38 -10 -112 37 -112 39 0 56 19 56 63 0 24 -5 48 -12
55 -18 18 -63 14 -81 -6z m57 -8 c16 -41 0 -104 -23 -90 -12 8 -15 88 -4 99
11 11 20 8 27 -9z"/>
<path d="M585 937 l0 -63 34 -1 c24 -1 30 2 22 10 -6 6 -11 35 -11 64 0 48 -2
53 -22 53 -21 0 -23 -4 -23 -63z"/>
<path d="M644 983 c2 -10 11 -20 20 -21 13 -3 17 2 14 14 -4 25 -37 31 -34 7z"/>
<path d="M774 975 c-27 -41 -2 -105 40 -105 20 1 20 2 4 14 -12 9 -18 27 -18
54 0 29 5 44 18 51 15 9 15 10 -5 11 -13 0 -29 -10 -39 -25z"/>
<path d="M973 993 c-23 -9 -14 -20 12 -15 20 3 25 0 25 -16 0 -11 -11 -34 -25
-50 -14 -17 -25 -32 -25 -34 0 -2 23 -4 50 -4 41 0 50 3 50 18 0 14 -6 16 -30
12 -37 -8 -38 2 -5 28 51 40 11 87 -52 61z"/>
<path d="M1097 982 c-39 -43 -8 -112 49 -112 25 0 64 43 64 71 0 50 -80 78
-113 41z m71 -37 c3 -47 -9 -70 -32 -62 -36 14 -25 112 12 105 12 -2 18 -14
20 -43z"/>
<path d="M1263 946 c-24 -30 -43 -58 -43 -61 0 -4 14 -5 30 -3 26 4 30 1 30
-19 0 -14 6 -23 15 -23 8 0 15 9 15 20 0 11 5 20 10 20 6 0 10 7 10 15 0 8 -4
15 -9 15 -6 0 -11 20 -13 45 l-3 46 -42 -55z"/>
<path d="M1370 980 c-39 -39 -11 -110 45 -110 30 0 65 36 65 67 0 30 -34 63
-65 63 -14 0 -34 -9 -45 -20z m68 -24 c2 -16 1 -39 -2 -52 -7 -25 -30 -32 -41
-13 -9 14 -9 75 0 89 13 21 40 6 43 -24z"/>
<path d="M1707 982 c-52 -57 24 -150 77 -96 23 23 21 91 -3 104 -29 15 -56 12
-74 -8z m57 -8 c16 -43 -2 -110 -25 -87 -12 12 -15 75 -4 92 9 16 22 13 29 -5z"/>
<path d="M1817 992 c6 -4 13 -32 15 -62 2 -44 7 -56 22 -58 10 -2 23 1 30 8 8
9 7 11 -4 8 -12 -2 -16 10 -18 55 -3 55 -4 57 -30 57 -16 0 -22 -3 -15 -8z"/>
<path d="M1888 988 c7 -7 12 -35 12 -64 0 -49 1 -51 26 -51 18 0 22 3 15 10
-6 6 -11 35 -11 64 0 51 -1 53 -27 53 -21 0 -24 -3 -15 -12z"/>
<path d="M1965 936 c0 -60 1 -63 25 -63 24 0 25 3 25 55 0 37 4 57 13 60 11 3
13 -9 10 -55 -3 -58 -2 -60 22 -60 23 0 25 3 22 41 -6 84 -7 85 -65 85 l-52 0
0 -63z"/>
<path d="M2253 984 c-3 -8 0 -21 6 -27 9 -9 13 -6 17 11 10 37 24 25 24 -22 0
-54 8 -76 26 -76 18 0 20 100 2 118 -17 17 -67 15 -75 -4z"/>
<path d="M2448 988 c15 -15 16 -90 2 -104 -7 -7 -1 -11 20 -11 23 0 29 4 25
14 -3 8 -5 37 -5 64 0 47 -1 49 -27 49 -21 0 -24 -3 -15 -12z"/>
<path d="M2538 989 c-23 -13 -24 -81 -2 -103 36 -37 94 -6 94 51 0 50 -48 78
-92 52z m56 -29 c6 -32 -7 -80 -23 -80 -11 0 -21 25 -21 55 0 57 33 77 44 25z"/>
<path d="M2650 990 c9 -5 11 -24 8 -63 -4 -51 -3 -55 17 -53 20 1 21 5 17 43
-3 26 0 49 8 58 23 28 32 16 28 -43 -3 -58 -3 -59 24 -59 24 0 26 3 17 20 -6
10 -9 31 -6 46 9 45 -6 58 -69 59 -34 0 -52 -3 -44 -8z"/>
<path d="M1631 972 c-6 -12 -5 -23 5 -37 13 -17 14 -16 14 18 0 41 -5 46 -19
19z"/>
<path d="M2258 929 c-37 -21 -12 -68 27 -53 14 6 13 8 -2 19 -15 11 -15 15 -4
29 15 18 5 21 -21 5z"/>
</g>
</svg>
