<?xml version="1.0" standalone="no"?>
<!DOCTYPE svg PUBLIC "-//W3C//DTD SVG 20010904//EN"
 "http://www.w3.org/TR/2001/REC-SVG-20010904/DTD/svg10.dtd">
<svg version="1.0" xmlns="http://www.w3.org/2000/svg"
 width="500.000000pt" height="500.000000pt" viewBox="0 0 500.000000 500.000000"
 preserveAspectRatio="xMidYMid meet">

<g transform="translate(0.000000,500.000000) scale(0.100000,-0.100000)"
fill="#000000" stroke="none">
<path d="M2797 4083 c-3 -16 -1 -32 4 -37 5 -6 9 4 9 27 0 44 -6 48 -13 10z"/>
<path d="M2198 4065 c-6 -28 6 -34 16 -9 8 22 7 34 -3 34 -5 0 -11 -11 -13
-25z"/>
<path d="M2821 4074 c0 -11 3 -14 6 -6 3 7 2 16 -1 19 -3 4 -6 -2 -5 -13z"/>
<path d="M3242 4025 c-34 -18 -36 -23 -8 -21 14 0 28 7 31 15 7 19 4 20 -23 6z"/>
<path d="M1843 4007 c7 -20 -6 -22 -35 -6 -36 19 -30 2 8 -20 31 -18 34 -24
23 -37 -11 -13 -9 -14 13 -9 21 6 29 1 47 -29 30 -47 37 -120 17 -175 -18 -50
-20 -101 -6 -150 5 -19 8 -36 6 -39 -11 -11 -68 33 -85 66 -16 30 -20 33 -21
15 0 -12 5 -25 10 -28 22 -14 7 -20 -42 -18 l-53 2 59 -9 c93 -15 138 -42 179
-108 19 -31 61 -85 92 -119 l57 -63 -75 6 c-46 4 -93 2 -122 -5 -58 -14 -85
-8 -78 19 3 11 0 20 -6 20 -6 0 -11 -5 -11 -12 0 -6 -9 -3 -20 7 -11 10 -20
14 -20 9 1 -17 38 -54 54 -54 15 0 24 -20 9 -20 -5 0 -24 -14 -43 -31 l-35
-31 46 32 c51 35 125 60 176 60 34 0 45 -13 19 -23 -8 -3 -20 -16 -27 -29 -12
-23 -12 -23 10 -4 21 19 21 19 22 -5 1 -17 3 -14 8 11 7 40 27 47 88 31 27 -8
64 -37 131 -102 51 -50 92 -92 90 -94 -2 -2 -23 0 -48 4 -27 4 -57 3 -72 -3
-21 -9 -13 -11 49 -11 66 0 77 -3 94 -23 60 -74 65 -312 9 -439 -29 -65 -56
-78 -167 -75 -137 3 -133 -2 -133 148 0 119 -1 126 -25 149 -34 35 -93 34
-134 -1 l-31 -26 0 27 c0 21 -4 26 -16 21 -9 -3 -39 -6 -67 -7 -41 0 -47 -2
-29 -9 21 -9 22 -14 22 -148 0 -134 -1 -139 -22 -150 -19 -9 -7 -11 61 -11 81
-1 83 0 68 17 -14 15 -17 40 -17 131 0 105 1 113 25 136 31 32 50 32 71 0 24
-36 17 -251 -9 -269 -15 -12 -10 -14 35 -20 86 -10 995 -7 978 4 -29 18 -1 21
54 5 121 -35 220 15 220 111 0 42 -26 79 -89 124 -27 19 -67 52 -88 72 -31 30
-37 42 -33 65 6 34 39 63 71 63 34 0 81 -44 98 -93 l15 -42 1 70 c0 43 -3 65
-8 56 -7 -11 -16 -11 -55 4 -33 13 -61 16 -95 12 -34 -4 -51 -2 -55 6 -2 7 -5
4 -5 -5 -1 -26 -13 -22 -52 18 -18 20 -47 42 -64 50 l-30 14 25 -17 c14 -10
41 -33 62 -51 35 -31 36 -34 22 -60 -21 -40 -18 -105 7 -136 11 -15 47 -44 79
-66 32 -22 68 -51 79 -66 28 -36 28 -88 -1 -108 -26 -18 -80 -21 -110 -5 -22
12 -56 80 -60 119 -1 14 -4 -9 -7 -50 l-6 -75 -90 -7 c-128 -10 -173 -2 -212
37 -67 67 -82 236 -34 387 33 103 44 113 135 113 51 0 68 3 52 8 l-24 8 29 32
c16 17 29 38 29 47 0 8 -8 2 -19 -15 -28 -46 -52 -62 -101 -68 l-44 -6 99 99
c90 89 105 99 147 105 52 8 78 -4 109 -52 11 -15 19 -23 19 -17 0 7 -13 26
-30 44 -16 18 -30 34 -30 36 0 2 15 4 33 4 51 0 125 -25 176 -60 42 -29 38
-24 -26 30 -31 27 -126 43 -207 36 l-68 -6 55 60 c30 32 72 86 92 119 28 44
49 66 79 81 23 11 48 20 55 20 7 0 10 4 7 9 -8 12 21 68 31 61 5 -3 9 11 10
30 l1 35 -8 -35 -7 -35 -2 30 c-1 27 -4 24 -20 -23 -21 -60 -16 -55 -59 -76
-40 -21 -46 -18 -32 18 14 39 12 107 -5 156 -21 59 -19 97 9 157 17 35 38 60
65 79 23 15 39 29 36 32 -9 9 -77 -51 -98 -86 l-21 -36 -13 30 c-6 16 -12 25
-13 20 0 -5 -8 -2 -17 5 -15 13 -15 12 0 -12 10 -14 14 -29 10 -32 -3 -4 2 -7
12 -7 14 0 16 -6 11 -31 -3 -17 -6 -36 -6 -41 0 -5 -23 16 -51 47 -50 54 -94
85 -121 85 -7 0 6 -9 29 -21 48 -24 103 -81 132 -136 22 -44 45 -123 37 -130
-3 -3 -18 4 -35 16 -20 15 -33 35 -40 64 l-10 42 2 -37 c2 -29 -1 -38 -13 -38
-8 -1 1 -9 20 -19 74 -39 82 -66 46 -151 -17 -41 -102 -160 -113 -160 -5 1
-21 19 -36 41 -15 22 -47 52 -71 67 -34 21 -46 36 -55 67 l-10 40 4 -37 c3
-30 0 -38 -13 -38 -9 -1 0 -7 21 -15 22 -7 50 -24 64 -36 l24 -24 -33 -9 c-33
-9 -33 -9 -8 -16 14 -5 19 -8 11 -9 -8 -1 -11 -4 -7 -8 4 -5 13 0 21 10 16 22
36 15 57 -23 l17 -29 -107 -101 -107 -101 -8 37 c-6 31 -3 43 19 73 l25 36
-30 -35 c-17 -19 -31 -28 -31 -21 0 8 -11 29 -25 47 -14 18 -25 39 -25 46 0 8
-7 23 -15 34 -13 18 -14 18 -8 -4 l6 -24 -34 17 -34 16 33 -26 c19 -16 31 -33
28 -41 -4 -9 2 -13 16 -11 25 2 57 -53 65 -112 5 -38 2 -43 -63 -115 -112
-124 -155 -124 -268 0 -67 73 -68 76 -62 117 4 23 17 60 29 82 24 43 91 95
125 98 20 1 42 27 22 27 -37 0 -142 -87 -161 -134 -13 -30 -13 -30 -19 -6 -3
14 -10 25 -15 25 -6 0 -16 4 -24 9 -8 5 -2 -7 13 -27 24 -32 27 -41 20 -71
l-9 -35 -102 95 c-57 53 -103 102 -103 109 0 25 41 65 68 66 l27 1 -25 7 -24
7 35 27 c20 15 51 30 70 34 32 6 33 7 9 13 -14 4 -27 4 -30 1 -3 -4 -24 -18
-47 -33 -34 -22 -62 -52 -100 -107 -2 -2 -19 13 -38 35 -41 46 -105 167 -105
199 0 25 45 69 82 81 21 6 21 7 4 14 -17 6 -17 7 -2 22 20 20 21 55 2 55 -9 0
-16 -16 -19 -41 -4 -29 -14 -48 -34 -63 l-28 -23 -3 31 c-7 66 83 200 160 238
24 11 36 21 27 21 -23 0 -89 -50 -131 -99 l-36 -42 -5 33 c-4 24 2 44 19 73
l25 40 -27 -32 -28 -31 -27 38 c-16 22 -31 50 -35 65 -3 14 -11 28 -17 32 -6
4 -8 0 -4 -10z"/>
<path d="M2158 3968 l-27 -28 47 2 c38 1 41 2 14 5 -33 4 -33 5 -16 24 27 30
12 28 -18 -3z"/>
<path d="M2795 3989 c-19 -7 -19 -8 1 -8 12 -1 27 -7 33 -15 10 -12 7 -15 -16
-19 -19 -3 -14 -4 17 -6 43 -1 44 0 23 14 -13 9 -26 22 -30 29 -5 9 -15 11
-28 5z"/>
<path d="M2208 3983 c6 -2 18 -2 25 0 6 3 1 5 -13 5 -14 0 -19 -2 -12 -5z"/>
<path d="M2710 3920 c-9 -6 -10 -10 -3 -10 6 0 15 5 18 10 8 12 4 12 -15 0z"/>
<path d="M2555 3802 l-29 -37 32 29 c26 24 32 26 32 12 0 -9 5 -14 10 -11 14
9 12 45 -2 44 -7 0 -26 -17 -43 -37z"/>
<path d="M2440 3793 c39 -46 51 -53 43 -23 -3 12 -8 18 -11 15 -3 -3 -19 7
-36 22 -28 26 -28 25 4 -14z"/>
<path d="M3032 3750 c0 -14 2 -19 5 -12 2 6 2 18 0 25 -3 6 -5 1 -5 -13z"/>
<path d="M2880 3721 c0 -6 -6 -11 -12 -11 -7 -1 -26 -7 -43 -15 -26 -13 -26
-14 -5 -9 14 3 33 8 43 10 12 4 17 0 17 -15 0 -27 16 -27 30 -1 6 12 22 20 38
21 23 1 22 2 -8 8 -20 4 -41 11 -48 15 -7 4 -12 2 -12 -3z"/>
<path d="M2058 3703 c18 -2 45 -2 60 0 15 2 0 4 -33 4 -33 0 -45 -2 -27 -4z"/>
<path d="M2175 3688 c17 -6 35 -15 42 -20 7 -5 14 -5 18 2 4 6 3 10 -2 9 -4
-1 -21 3 -36 9 -16 7 -34 12 -40 11 -7 0 2 -5 18 -11z"/>
<path d="M1840 3635 c1 -26 2 -28 11 -12 8 14 8 22 0 30 -8 8 -11 3 -11 -18z"/>
<path d="M2418 3605 c-15 -21 -39 -46 -55 -56 -15 -10 -22 -19 -14 -19 7 0 28
15 47 34 18 18 36 31 38 28 7 -7 19 25 14 39 -2 6 -15 -6 -30 -26z"/>
<path d="M2638 3579 l4 -34 -32 30 c-27 24 -30 26 -21 8 6 -12 20 -28 31 -36
11 -8 17 -17 13 -21 -4 -4 0 -4 10 0 20 7 22 43 4 69 -13 16 -14 15 -9 -16z"/>
<path d="M2218 3560 c-3 -17 0 -29 5 -27 12 4 19 57 7 57 -4 0 -10 -14 -12
-30z"/>
<path d="M1637 3549 c-66 -34 -77 -47 -14 -19 57 26 68 25 63 -5 -6 -30 9 -33
24 -6 30 56 2 67 -73 30z"/>
<path d="M3208 3573 c12 -2 32 -2 45 0 12 2 2 4 -23 4 -25 0 -35 -2 -22 -4z"/>
<path d="M3327 3551 c29 -10 69 -30 91 -44 21 -15 45 -27 53 -26 7 0 4 4 -9
10 -14 5 -20 13 -16 20 4 7 3 9 -3 6 -5 -3 -35 7 -68 24 -32 16 -67 29 -79 29
-12 -1 2 -9 31 -19z"/>
<path d="M2288 3513 c7 -3 16 -2 19 1 4 3 -2 6 -13 5 -11 0 -14 -3 -6 -6z"/>
<path d="M2698 3513 c7 -3 16 -2 19 1 4 3 -2 6 -13 5 -11 0 -14 -3 -6 -6z"/>
<path d="M3245 3370 c-3 -5 -1 -10 4 -10 6 0 11 5 11 10 0 6 -2 10 -4 10 -3 0
-8 -4 -11 -10z"/>
<path d="M3241 3334 c0 -11 3 -14 6 -6 3 7 2 16 -1 19 -3 4 -6 -2 -5 -13z"/>
<path d="M3190 3303 c-26 -27 -29 -33 -11 -22 21 14 60 59 50 59 -2 0 -20 -17
-39 -37z"/>
<path d="M3048 3190 c-3 -16 -1 -30 4 -30 4 0 8 14 8 30 0 17 -2 30 -4 30 -2
0 -6 -13 -8 -30z"/>
<path d="M1665 3180 c3 -18 -2 -20 -43 -21 -44 -1 -45 -1 -17 -10 17 -5 41 -7
55 -3 24 5 24 5 6 -15 -12 -13 -14 -21 -7 -21 7 0 23 12 36 26 l25 26 -24 19
c-31 24 -36 24 -31 -1z"/>
<path d="M2842 3165 c0 -16 2 -22 5 -12 2 9 2 23 0 30 -3 6 -5 -1 -5 -18z"/>
<path d="M3458 3174 c6 -12 8 -25 4 -29 -4 -4 3 -1 16 6 14 9 18 15 10 18 -7
2 -19 9 -27 15 -12 9 -12 8 -3 -10z"/>
<path d="M2465 3168 c-50 -29 -59 -81 -22 -124 31 -35 77 -37 112 -4 41 39 31
100 -22 128 -27 15 -42 15 -68 0z"/>
<path d="M3288 3163 c7 -3 16 -2 19 1 4 3 -2 6 -13 5 -11 0 -14 -3 -6 -6z"/>
<path d="M3375 3160 l-60 -7 57 -1 c31 -1 60 3 63 8 3 6 5 9 3 8 -2 -1 -30 -4
-63 -8z"/>
<path d="M2181 3135 c-1 -13 36 -61 42 -55 12 13 17 50 7 50 -6 0 -8 -4 -5
-10 11 -18 -17 -11 -31 8 -7 9 -13 13 -13 7z"/>
<path d="M2115 3032 c-11 -2 -38 -25 -60 -50 l-40 -46 40 32 c34 28 40 30 43
15 2 -10 5 -25 8 -33 8 -23 27 16 29 57 0 18 1 32 0 32 0 -1 -9 -4 -20 -7z"/>
<path d="M519 2946 c-99 -35 -144 -106 -143 -226 0 -86 15 -121 68 -168 35
-31 127 -58 164 -49 11 3 8 5 -9 6 -33 1 -74 33 -96 74 -13 24 -18 57 -18 137
0 90 3 112 23 152 56 114 199 93 229 -34 10 -41 11 -40 11 37 1 55 -2 73 -8
59 l-9 -22 -47 24 c-53 27 -109 30 -165 10z"/>
<path d="M876 2833 c-56 -4 -58 -5 -37 -19 20 -14 21 -24 21 -144 0 -122 -1
-130 -22 -144 -21 -15 -16 -16 72 -16 91 1 94 1 67 16 l-28 15 1 122 c1 167 1
177 -7 175 -5 -1 -35 -3 -67 -5z"/>
<path d="M979 2819 c-23 -19 -23 -20 -2 -10 31 15 51 15 35 -1 -19 -19 -14
-56 8 -68 46 -24 90 41 55 80 -23 26 -67 25 -96 -1z"/>
<path d="M1200 2822 c-85 -42 -108 -205 -38 -279 27 -29 84 -45 127 -37 35 7
91 57 91 80 0 10 -5 9 -20 -6 -46 -46 -111 -34 -135 24 -29 69 -10 207 31 223
26 10 54 -32 54 -78 0 -39 0 -39 41 -39 41 0 41 0 34 33 -19 89 -98 123 -185
79z"/>
<path d="M1511 2822 c-49 -26 -71 -73 -71 -150 0 -87 21 -129 78 -154 58 -26
105 -17 149 27 42 42 43 66 2 31 -40 -34 -74 -33 -110 3 -27 28 -29 34 -29
111 0 90 18 140 50 140 25 0 42 -32 44 -81 1 -38 2 -39 40 -39 l39 0 -6 38
c-13 80 -105 117 -186 74z"/>
<path d="M3348 2832 c-57 -3 -57 -3 -38 -22 18 -18 20 -35 20 -199 0 -175 -1
-180 -22 -195 -21 -15 -16 -16 72 -15 52 1 85 4 72 6 -12 2 -26 12 -31 22 -5
9 -10 90 -10 179 -1 160 -1 163 23 187 31 31 47 31 72 4 15 -17 20 -39 22
-113 4 -115 -14 -158 -68 -166 l-35 -6 28 -7 c35 -9 99 7 120 31 28 31 47 90
47 147 0 106 -45 162 -121 152 -23 -3 -51 -15 -64 -27 l-23 -22 -4 23 c-3 22
-7 24 -60 21z"/>
<path d="M3785 2834 c40 -7 55 -29 55 -80 0 -49 -7 -56 -83 -84 -62 -23 -87
-50 -87 -92 0 -63 87 -92 143 -48 l26 21 11 -21 c12 -22 72 -28 100 -10 13 8
13 10 -1 10 -15 0 -17 17 -20 130 -5 160 -12 172 -111 176 -35 1 -49 0 -33 -2z
m55 -204 c0 -64 -2 -71 -22 -79 -37 -14 -58 4 -58 48 0 33 6 44 38 70 20 17
38 30 40 31 1 0 2 -32 2 -70z"/>
<path d="M4081 2822 c-56 -28 -75 -63 -79 -145 -2 -58 1 -78 17 -104 30 -47
66 -67 123 -67 45 0 54 4 84 37 42 46 44 68 3 33 -38 -32 -70 -33 -105 -2 -24
20 -28 32 -32 89 -7 111 32 178 94 163 l27 -7 -22 -16 c-16 -11 -21 -23 -19
-46 3 -29 6 -32 37 -32 40 0 57 21 47 58 -13 53 -108 74 -175 39z"/>
<path d="M4390 2822 c-85 -42 -108 -205 -38 -279 27 -29 84 -45 127 -37 35 7
91 57 91 80 0 10 -5 9 -20 -6 -46 -46 -111 -34 -135 24 -29 69 -10 207 31 223
26 10 54 -32 54 -78 0 -39 0 -39 41 -39 41 0 41 0 34 33 -19 89 -98 123 -185
79z"/>
<path d="M3712 2814 c-14 -9 -22 -26 -22 -43 0 -50 42 -68 75 -31 15 17 16 24
7 45 -6 14 -16 25 -22 25 -6 0 -8 5 -5 10 9 15 -8 12 -33 -6z"/>
<path d="M628 2685 c32 -14 32 -15 32 -84 0 -56 -4 -72 -17 -81 -15 -9 -14
-10 7 -4 14 3 38 13 53 21 16 8 30 13 31 11 2 -2 8 -12 14 -23 9 -16 11 -2 12
67 0 72 3 89 18 97 12 8 -10 10 -83 10 -95 0 -98 -1 -67 -14z"/>
<path d="M2503 2413 c-52 -4 -52 -4 -32 -24 15 -15 19 -33 19 -84 0 -62 -1
-65 -19 -55 -31 16 -93 12 -127 -9 -42 -26 -64 -77 -64 -150 0 -104 34 -155
112 -167 27 -5 40 -1 66 21 31 26 32 26 32 6 0 -19 6 -21 62 -21 l61 0 -19 21
c-17 19 -19 41 -22 245 -2 123 -6 223 -10 222 -4 -1 -30 -3 -59 -5z m-15 -303
c2 -89 -1 -118 -13 -136 -19 -30 -56 -31 -81 -3 -24 27 -32 155 -12 214 16 49
52 71 83 51 18 -12 20 -26 23 -126z"/>
<path d="M1309 2178 c-40 -106 -84 -205 -97 -220 l-24 -28 64 0 c62 1 62 1 36
16 -33 17 -37 52 -12 114 l16 40 68 0 67 0 22 -56 c27 -71 27 -92 -1 -104 -16
-6 7 -9 76 -9 l99 -1 -21 23 c-11 12 -48 92 -80 177 -96 249 -92 240 -117 240
-19 0 -30 -22 -96 -192z m85 18 c14 -41 26 -77 26 -80 0 -3 -27 -6 -60 -6 -33
0 -60 3 -60 7 0 14 55 153 61 153 4 0 18 -33 33 -74z"/>
<path d="M1724 2246 c-68 -31 -104 -141 -74 -230 34 -104 175 -127 235 -38 31
45 25 52 -15 18 -35 -29 -46 -31 -85 -16 -37 14 -59 71 -52 141 8 94 45 141
98 124 l21 -7 -21 -19 c-40 -37 -18 -83 36 -77 24 3 28 8 31 39 2 25 -3 40
-18 54 -26 24 -114 30 -156 11z"/>
<path d="M2068 2250 c43 -10 44 -11 50 -68 5 -55 0 -61 -71 -87 -74 -28 -97
-50 -97 -94 0 -24 7 -44 18 -54 26 -23 93 -22 124 2 24 19 24 19 36 0 13 -21
75 -26 102 -9 13 8 13 10 -1 10 -14 0 -17 20 -21 132 -6 128 -7 133 -32 155
-22 19 -38 23 -84 22 -50 -1 -53 -2 -24 -9z m50 -201 c-2 -50 -7 -64 -25 -76
-19 -13 -24 -12 -43 7 -16 16 -20 29 -16 48 6 25 60 82 79 82 4 0 7 -28 5 -61z"/>
<path d="M2723 2241 c-18 -11 -39 -31 -48 -45 -22 -33 -31 -133 -16 -179 35
-104 176 -128 236 -39 28 41 25 56 -5 24 -62 -67 -150 -15 -150 88 l0 30 84 0
c47 0 88 4 91 10 10 16 -13 85 -35 105 -31 28 -117 31 -157 6z m101 -13 c9
-12 16 -40 16 -61 l0 -38 -47 3 -48 3 3 35 c3 40 26 80 47 80 7 0 21 -10 29
-22z"/>
<path d="M3011 2253 c-51 -4 -53 -5 -32 -19 20 -14 21 -24 21 -144 0 -122 -1
-130 -22 -144 -21 -15 -17 -16 62 -16 70 0 81 2 67 13 -15 11 -17 28 -15 136
3 122 4 124 30 144 22 17 30 18 43 7 12 -10 15 -38 15 -146 0 -116 -2 -134
-17 -143 -13 -8 4 -10 67 -11 79 0 83 1 62 16 -20 14 -22 23 -22 119 0 57 4
115 10 129 12 34 44 50 70 36 18 -10 20 -21 20 -145 0 -117 -2 -135 -17 -144
-13 -8 4 -10 67 -11 79 0 83 1 62 16 -21 14 -22 22 -22 140 0 119 -1 126 -25
149 -33 34 -93 34 -132 1 l-29 -24 -23 24 c-30 32 -97 33 -135 3 l-26 -20 0
20 c0 12 -6 20 -12 19 -7 -1 -37 -3 -67 -5z"/>
<path d="M1985 2225 c-14 -13 -25 -31 -25 -39 0 -20 28 -46 50 -46 40 0 60 73
24 87 -8 3 -11 9 -8 14 11 19 -18 8 -41 -16z"/>
<path d="M3518 2233 c11 -10 50 -87 87 -171 71 -164 76 -196 32 -227 -12 -8
-17 -15 -11 -15 24 0 45 43 105 210 34 96 71 185 82 198 l20 22 -59 0 c-54 0
-57 -1 -34 -13 15 -7 26 -23 28 -37 3 -27 -38 -158 -51 -162 -6 -2 -87 173
-87 189 0 2 10 8 23 13 16 6 -3 9 -67 9 -85 1 -87 0 -68 -16z"/>
<path d="M3537 1894 c-11 -12 -8 -51 6 -62 17 -14 68 -26 66 -16 -1 5 1 17 5
26 15 33 3 53 -34 56 -20 2 -39 0 -43 -4z"/>
</g>
</svg>
